<svg width="24" height="24" viewBox="0 0 24 24" fill="none" xmlns="http://www.w3.org/2000/svg">
<g clip-path="url(#clip0_614_955)">
<path d="M12 1L1 7.5H23L12 1Z" fill="#FFC23C"/>
<path fill-rule="evenodd" clip-rule="evenodd" d="M6.02367 3.57539L0.0705469 7.14633L0.0586875 15.5712L0.046875 23.9961H2.39072H4.73461V18.5352V13.0742H5.50805H6.28148V13.8477V14.6211H7.05492H7.82836V13.8477V13.0742H12.0002H16.1721V13.8477V14.6211H16.9455H17.719V13.8477V13.0742H18.4924H19.2659V18.5352V23.9961H21.6097H23.9536L23.9418 15.5728L23.9299 7.14937L17.9768 3.57469L12.0237 0L12.0002 0.00220313L11.9768 0.00440625L6.02367 3.57539ZM16.2209 4.3508L20.3646 6.83986H11.9988H3.63305L7.80492 4.33388L11.9768 1.82789L12.027 1.84481L12.0772 1.86169L16.2209 4.3508ZM6.28148 9.95705V11.5274H3.93773H1.59398V9.95705V8.38673H3.93773H6.28148V9.95705ZM16.1721 9.95728V11.5279L12.012 11.5159L7.8518 11.5039L7.83947 9.94533L7.82709 8.38673H11.9996H16.1721V9.95728ZM22.4065 9.95747V11.5282L20.0745 11.5161L17.7424 11.5039L17.7301 9.94533L17.7177 8.38673H20.0621H22.4065V9.95747ZM3.14086 17.7617V22.4492H2.36742H1.59398V17.7617V13.0742H2.36742H3.14086V17.7617ZM22.4065 17.7617V22.4492H21.633H20.8596V17.7617V13.0742H21.633H22.4065V17.7617Z" fill="#323C49"/>
</g>
<defs>
<clipPath id="clip0_614_955">
<rect width="24" height="24" fill="white"/>
</clipPath>
</defs>
</svg>
