<svg width="33" height="32" viewBox="0 0 33 32" fill="none" xmlns="http://www.w3.org/2000/svg">
<path d="M14.9649 11.9943H17.4279C17.9847 11.9943 18.1479 12.5323 18.4312 13.03L18.6055 13.3362H21.8236C22.6755 13.3362 23.361 14.0437 23.361 14.923V21.9993C23.361 22.8793 22.6755 23.5861 21.8236 23.5861H10.5688C9.71872 23.5861 9.0332 22.8793 9.0332 21.9993V14.9234C9.0332 14.0441 9.71907 13.3365 10.5688 13.3365H13.7895L13.963 13.0304C14.2464 12.5323 14.4096 11.9943 14.9649 11.9943ZM5.06307 4.16961C3.65934 4.16961 2.52832 5.10934 2.52832 6.27947V26.0949C2.52832 27.2644 3.65934 28.2041 5.06307 28.2041H27.3336C28.737 28.2041 29.8648 27.1957 29.8648 26.0949V9.33547C29.8648 8.16747 28.7349 7.22632 27.3315 7.22632H14.5873L13.4318 4.77761C13.2579 4.40463 12.8832 4.16925 12.4743 4.16925H5.06307V4.16961Z" fill="#35455C"/>
<path d="M16.1961 15.6893C14.6683 15.6893 13.4277 16.9309 13.4277 18.4608C13.4277 19.9915 14.6683 21.2324 16.1961 21.2324C17.7257 21.2324 18.9648 19.9915 18.9648 18.4608C18.9648 16.9309 17.7261 15.6893 16.1961 15.6893Z" fill="#35455C"/>
</svg>
