<svg width="33" height="32" viewBox="0 0 33 32" fill="none" xmlns="http://www.w3.org/2000/svg">
<path d="M24.8464 0H7.513C3.469 0 0.179688 3.28931 0.179688 7.33331V24.6666C0.179688 28.7107 3.469 32 7.513 32H24.8463C28.8904 32 32.1797 28.7107 32.1797 24.6667V7.33331C32.1797 3.28931 28.8904 0 24.8464 0ZM23.9384 14.968C23.9824 15.312 24.0131 15.656 24.0131 16C24.0131 16.3427 23.9824 16.684 23.9384 17.012C23.9077 17.2467 24.0011 17.48 24.1877 17.6253L26.5077 19.444L24.325 23.216L21.593 22.1173C21.373 22.0266 21.1223 22.0626 20.9343 22.2093C20.413 22.616 19.8196 22.9613 19.1716 23.24C18.9569 23.332 18.8063 23.5293 18.7743 23.76L18.4463 26.6667H13.9916L13.5849 23.776C13.5529 23.544 13.3996 23.3453 13.1823 23.2547C12.5463 22.988 11.9702 22.6507 11.4236 22.2267C11.2369 22.08 10.9862 22.044 10.7662 22.1334L8.03425 23.2321L5.85169 19.46L8.17169 17.6413C8.357 17.496 8.45169 17.264 8.42237 17.0306C8.37706 16.6879 8.34638 16.3439 8.34638 15.9999C8.34638 15.6572 8.37706 15.3159 8.42106 14.9879C8.45175 14.7533 8.35838 14.5199 8.17175 14.3746L5.85175 12.5559L8.03444 8.78394L10.7664 9.88262C10.9851 9.97062 11.2358 9.93594 11.4251 9.79062C11.9464 9.38531 12.5398 9.03731 13.1878 8.75994C13.4025 8.66794 13.5531 8.47062 13.5851 8.23994L13.9131 5.33325H18.3678L18.7745 8.22394C18.8065 8.45594 18.9598 8.65462 19.1772 8.74525C19.8159 9.01325 20.3905 9.34925 20.9359 9.77325C21.1239 9.91994 21.3759 9.95456 21.5946 9.86525L24.3266 8.76656L26.5093 12.5386L24.1893 14.3573C24.0037 14.5027 23.909 14.7347 23.9384 14.968Z" fill="#35455C"/>
</svg>
