<svg width="24" height="24" viewBox="0 0 24 24" fill="none" xmlns="http://www.w3.org/2000/svg">
<path d="M20.5 6H3L2 6.5L1 8V11.5L12 14.5L17.5 13L23.5 11.5L23 9L22.5 7L20.5 6Z" fill="#FFC23B"/>
<path fill-rule="evenodd" clip-rule="evenodd" d="M10.6772 2.0225L10.5773 2.045L10.2273 2.12454L9.87734 2.20413L9.57052 2.34261L9.26371 2.4811L8.95564 2.69027L8.64763 2.89945L8.37016 3.17697L8.09264 3.45449L7.85472 3.8189L7.61679 4.18335L7.48881 4.50312L7.36077 4.82293L7.32613 5.00756L7.29148 5.19219L5.45979 5.19259L3.62804 5.19294L3.30308 5.24543L2.97812 5.29793L2.63785 5.41602L2.29759 5.53405L1.94893 5.74123L1.60022 5.94841L1.27206 6.25537L0.943944 6.56229L0.722719 6.8723L0.501494 7.18232L0.35681 7.50143L0.212126 7.8205L0.122186 8.11866L0.0322464 8.41683L0.0161482 13.7662L0 19.1156L0.053944 19.4644L0.107838 19.8132L0.226574 20.1546L0.345311 20.4961L0.557537 20.8557L0.769763 21.2154L1.17402 21.6196L1.57827 22.0239L1.92988 22.2313L2.28149 22.4388L2.6383 22.5634L2.99506 22.6881L3.33657 22.7406L3.67804 22.7931L12.2271 22.7783L20.7761 22.7635L20.9761 22.6987L21.1761 22.6338L21.519 22.5056L21.8619 22.3773L22.2243 22.135L22.5866 21.8927L22.9142 21.5454L23.2418 21.1981L23.4456 20.8551L23.6493 20.5122L23.7727 20.1589L23.8962 19.8056L23.9481 19.4856L24 19.1656V13.9912V8.81678L23.9481 8.49677L23.8962 8.17675L23.7727 7.82349L23.6493 7.47023L23.4469 7.12962L23.2445 6.78896L22.9376 6.4608L22.6307 6.13268L22.3206 5.91146L22.0106 5.69024L21.6915 5.54555L21.3724 5.40087L21.0743 5.31318L20.7761 5.22554L18.7437 5.20539L16.7114 5.18524L16.6774 5.00406L16.6434 4.82293L16.5154 4.50312L16.3874 4.18335L16.1467 3.81475L15.9061 3.44614L15.6057 3.15032L15.3053 2.8545L15.0263 2.66937L14.7474 2.48425L14.4371 2.34486L14.1269 2.20553L13.8019 2.11594L13.4769 2.02635L12.1271 2.0132L10.7772 2L10.6772 2.0225ZM13.406 3.68401L13.735 3.7699L14.0238 3.94363L14.3125 4.11731L14.5447 4.37103L14.7768 4.62475L14.9155 4.89597L15.0543 5.16719L13.5282 5.18039L12.0021 5.19364L10.4759 5.18039L8.94974 5.16719L9.08568 4.89222L9.22166 4.61726L9.52448 4.31354L9.82734 4.00982L10.1523 3.85049L10.4773 3.69121L10.7022 3.64726L10.9272 3.60332L12.0021 3.60072L13.077 3.59812L13.406 3.68401ZM20.5066 6.84305L20.7757 6.89405L21.0909 7.04158L21.4062 7.18912L21.705 7.48793L22.0038 7.78675L22.1514 8.10201L22.2989 8.41728L22.3499 8.68635L22.4009 8.95542V9.97135V10.9873L22.0635 11.0868L21.726 11.1864L20.4012 11.5599L19.0763 11.9334L18.9388 11.9678L18.8013 12.0023V11.6453V11.2883L18.7325 11.1274L18.6637 10.9665L18.5042 10.8166L18.3448 10.6666H18.0106H17.6765L17.5397 10.7666L17.4029 10.8666L17.3023 11.0698L17.2015 11.2731V11.8716V12.4701L15.5142 12.9519L13.8269 13.4336L13.4019 13.5239L12.977 13.6142L12.0021 13.6144L11.0272 13.6146L10.6273 13.5288L10.2273 13.443L8.51499 12.9571L6.80268 12.4712V11.8797V11.2883L6.73384 11.1274L6.665 10.9665L6.50557 10.8166L6.34619 10.6666H6.01197H5.67781L5.54108 10.7666L5.40429 10.8666L5.3036 11.0698L5.20286 11.2731V11.6323V11.9914H5.16837H5.13382L3.70603 11.5876L2.27819 11.1838L1.94073 11.0828L1.60327 10.9818V9.92231V8.86278L1.67786 8.57646L1.7524 8.29014L1.88364 8.03122L2.01487 7.77225L2.29919 7.48793L2.58351 7.20361L2.84403 7.07158L3.10455 6.93959L3.36632 6.8691L3.62804 6.79861L11.9328 6.79531L20.2375 6.79201L20.5066 6.84305ZM5.20286 14.2714L5.22786 14.8661L5.31415 15.0237L5.40044 15.1814L5.58557 15.2959L5.7707 15.4103H6.00277H6.23485L6.42033 15.2957L6.60581 15.181L6.70425 14.988L6.80268 14.7951V14.4647V14.1344L6.89017 14.1604L6.97766 14.1863L8.30252 14.5675L9.62737 14.9487L10.0773 15.043L10.5273 15.1374L10.9772 15.1888L11.4272 15.2403H12.0021H12.577L13.0249 15.1889L13.4729 15.1376L13.8498 15.0612L14.2268 14.9847L15.6505 14.582L17.0742 14.1793L17.1379 14.1549L17.2015 14.1305V14.4628V14.7951L17.3 14.988L17.3984 15.181L17.5839 15.2957L17.7694 15.4103H18.0014H18.2335L18.4186 15.2959L18.6038 15.1814L18.69 15.0237L18.7763 14.8661L18.8013 14.2709L18.8263 13.6757L20.6136 13.1666L22.4009 12.6575V15.8422V19.027L22.3499 19.2961L22.2989 19.5651L22.1514 19.8804L22.0038 20.1957L21.705 20.4945L21.4062 20.7933L21.0909 20.9408L20.7757 21.0884L20.5066 21.1393L20.2375 21.1904L11.9828 21.1896L3.72803 21.1889L3.41462 21.115L3.1012 21.0411L2.84238 20.91L2.58351 20.7788L2.29919 20.4945L2.01487 20.2102L1.88364 19.9512L1.7524 19.6923L1.67786 19.4059L1.60327 19.1196V15.8874V12.6552L3.39057 13.1659L5.17787 13.6766L5.20286 14.2714Z" fill="#323C49"/>
</svg>
