<svg width="24" height="24" viewBox="0 0 24 24" fill="none" xmlns="http://www.w3.org/2000/svg">
<g clip-path="url(#clip0_211_537)">
<path d="M5 10.5V23H19V10.5H5Z" fill="#FFC23C"/>
<path fill-rule="evenodd" clip-rule="evenodd" d="M11.4501 0.199207L11.0749 0.398361L5.74089 3.26741L0.406885 6.13651L0.258284 6.27429L0.109629 6.41211L0.054841 6.60194L0 6.79182L0.0158145 15.1374L0.0316288 23.4829L0.142169 23.6309L0.252708 23.7789L0.40072 23.8895L0.548786 24H12.013H23.4773L23.6253 23.8895L23.7733 23.7789L23.8839 23.6309L23.9944 23.4829L24.0102 15.1374L24.0261 6.79182L23.9712 6.60194L23.9164 6.41211L23.7678 6.27311L23.6192 6.1341L17.9635 3.09018L12.3079 0.0462637L12.0666 0.0231586L11.8254 0L11.4501 0.199207ZM17.1771 4.62069L22.3045 7.38151L22.3051 14.8464L22.3058 22.3113H21.0198H19.7339L19.7198 16.1503L19.7058 9.98932L19.5952 9.84131L19.4847 9.6933L19.3367 9.58276L19.1886 9.47222H12.013H4.83743L4.68936 9.58276L4.54135 9.6933L4.43081 9.84131L4.32027 9.98932L4.30623 16.1503L4.29213 22.3113H3.00623H1.72028L1.72135 14.8464L1.72248 7.38151L6.85433 4.61404L11.9862 1.84664L12.018 1.85323L12.0497 1.85988L17.1771 4.62069ZM18.0171 12.4475V13.7341H12.013H6.00893V12.4475V11.1609H12.013H18.0171V12.4475ZM18.0171 16.7361V18.0227H12.013H6.00893V16.7361V15.4495H12.013H18.0171V16.7361ZM18.0171 21.0248V22.3113H12.013H6.00893V21.0248V19.7382H12.013H18.0171V21.0248Z" fill="#323C49"/>
</g>
<defs>
<clipPath id="clip0_211_537">
<rect width="24" height="24" fill="white"/>
</clipPath>
</defs>
</svg>
