<svg width="16" height="16" viewBox="0 0 16 16" fill="none" xmlns="http://www.w3.org/2000/svg">
<g clip-path="url(#clip0_246_13)">
<path d="M8.00261 4.08789C5.84198 4.08789 4.09277 5.839 4.09277 7.99773C4.09277 10.1584 5.84388 11.9076 8.00261 11.9076C10.1632 11.9076 11.9125 10.1565 11.9125 7.99773C11.9125 5.8371 10.1613 4.08789 8.00261 4.08789ZM8.00261 10.5355C6.60007 10.5355 5.46484 9.39964 5.46484 7.99773C5.46484 6.59583 6.60071 5.45995 8.00261 5.45995C9.40452 5.45995 10.5404 6.59583 10.5404 7.99773C10.541 9.39964 9.40515 10.5355 8.00261 10.5355Z" fill="#D21FFF"/>
<path d="M11.1411 0.4297C9.73924 0.364304 6.26686 0.367478 4.86369 0.4297C3.63067 0.487478 2.54305 0.785256 1.66623 1.66208C0.200833 3.12748 0.388134 5.10208 0.388134 7.99795C0.388134 10.9618 0.223055 12.8907 1.66623 14.3338C3.13734 15.8043 5.14051 15.6119 8.0021 15.6119C10.938 15.6119 11.9513 15.6138 12.9894 15.2119C14.4008 14.664 15.4662 13.4024 15.5704 11.1364C15.6364 9.73383 15.6326 6.26208 15.5704 4.85891C15.4446 2.18399 14.0091 0.561764 11.1411 0.4297ZM13.3602 13.3643C12.3996 14.3249 11.0669 14.2392 7.98369 14.2392C4.80909 14.2392 3.53607 14.2862 2.60718 13.3548C1.53734 12.29 1.73099 10.5802 1.73099 7.98779C1.73099 4.47986 1.37099 1.95351 4.89163 1.77319C5.70051 1.74462 5.93861 1.7351 7.9748 1.7351L8.00337 1.75414C11.3869 1.75414 14.0415 1.39986 14.2008 4.91986C14.237 5.72303 14.2453 5.9643 14.2453 7.99732C14.2446 11.1351 14.3043 12.4157 13.3602 13.3643Z" fill="#D21FFF"/>
<path d="M12.067 4.84683C12.5716 4.84683 12.9806 4.43777 12.9806 3.93318C12.9806 3.42859 12.5716 3.01953 12.067 3.01953C11.5624 3.01953 11.1533 3.42859 11.1533 3.93318C11.1533 4.43777 11.5624 4.84683 12.067 4.84683Z" fill="#D21FFF"/>
</g>
<defs>
<clipPath id="clip0_246_13">
<rect width="15.2381" height="15.2381" fill="white" transform="translate(0.380859 0.380859)"/>
</clipPath>
</defs>
</svg>
