<svg width="103" height="40" viewBox="0 0 103 40" fill="none" xmlns="http://www.w3.org/2000/svg">
<path d="M7.22175 31.8086V39.4451H5.45445V36.3141H1.98531V39.4451H0.218018V31.8086H1.98531V34.8196H5.45445V31.8086H7.22175Z" fill="black"/>
<path d="M14.306 37.8087H10.7605L10.0841 39.4451H8.27321L11.6769 31.8086H13.4224L16.837 39.4451H14.9824L14.306 37.8087ZM13.7497 36.4669L12.5387 33.5432L11.3278 36.4669H13.7497Z" fill="black"/>
<path d="M23.1406 35.4632C23.6061 35.6014 23.9625 35.8269 24.2097 36.1396C24.457 36.4523 24.5806 36.8378 24.5806 37.296C24.5806 37.9723 24.3225 38.4996 23.8061 38.8778C23.297 39.256 22.5661 39.4451 21.6133 39.4451H17.8496V31.8086H21.4061C22.2933 31.8086 22.9843 31.9795 23.4788 32.3214C23.9734 32.6632 24.2206 33.1505 24.2206 33.7832C24.2206 34.1614 24.1261 34.4959 23.937 34.7868C23.7479 35.0705 23.4825 35.2959 23.1406 35.4632ZM19.606 34.9723H21.2533C21.6388 34.9723 21.9297 34.8959 22.1261 34.7432C22.3224 34.5832 22.4206 34.3505 22.4206 34.045C22.4206 33.7468 22.3188 33.5177 22.1152 33.3577C21.9188 33.1977 21.6315 33.1177 21.2533 33.1177H19.606V34.9723ZM21.5479 38.136C22.377 38.136 22.7915 37.8087 22.7915 37.1541C22.7915 36.5214 22.377 36.205 21.5479 36.205H19.606V38.136H21.5479Z" fill="black"/>
<path d="M31.8911 38.0269V39.4451H25.9783V31.8086H31.7493V33.2268H27.7347V34.885H31.2802V36.2596H27.7347V38.0269H31.8911Z" fill="black"/>
<path d="M36.9083 39.576C36.1301 39.576 35.4246 39.4087 34.7919 39.0742C34.1664 38.7323 33.6719 38.2632 33.3082 37.6669C32.9518 37.0632 32.7737 36.3832 32.7737 35.6268C32.7737 34.8705 32.9518 34.1941 33.3082 33.5977C33.6719 32.9941 34.1664 32.525 34.7919 32.1904C35.4246 31.8486 36.1337 31.6777 36.9192 31.6777C37.581 31.6777 38.1774 31.7941 38.7083 32.0268C39.2465 32.2595 39.6974 32.5941 40.061 33.0305L38.9265 34.0777C38.4101 33.4814 37.7701 33.1832 37.0064 33.1832C36.5337 33.1832 36.1119 33.2886 35.741 33.4995C35.3701 33.7032 35.0791 33.9905 34.8682 34.3614C34.6646 34.7323 34.5628 35.1541 34.5628 35.6268C34.5628 36.0996 34.6646 36.5214 34.8682 36.8923C35.0791 37.2632 35.3701 37.5541 35.741 37.7651C36.1119 37.9687 36.5337 38.0705 37.0064 38.0705C37.7701 38.0705 38.4101 37.7687 38.9265 37.1651L40.061 38.2123C39.6974 38.656 39.2465 38.9942 38.7083 39.2269C38.1701 39.4596 37.5701 39.576 36.9083 39.576Z" fill="black"/>
<path d="M51.3061 31.8086V39.4451H49.5389V36.3141H46.0697V39.4451H44.3024V31.8086H46.0697V34.8196H49.5389V31.8086H51.3061Z" fill="black"/>
<path d="M58.3904 37.8087H54.8449L54.1685 39.4451H52.3576L55.7613 31.8086H57.5068L60.9214 39.4451H59.0668L58.3904 37.8087ZM57.834 36.4669L56.6231 33.5432L55.4122 36.4669H57.834Z" fill="black"/>
<path d="M69.3655 35.4632C69.8091 35.6159 70.1546 35.8559 70.4018 36.1832C70.6564 36.5032 70.7837 36.8778 70.7837 37.3069C70.7837 37.7723 70.6309 38.176 70.3255 38.5178C70.02 38.8596 69.6055 39.1214 69.0818 39.3033C68.5654 39.4851 67.9982 39.576 67.38 39.576C66.8563 39.576 66.3327 39.5105 65.809 39.3796C65.2927 39.2487 64.8018 39.0487 64.3363 38.7796L64.8818 37.5141C65.2163 37.7178 65.5836 37.8742 65.9836 37.9832C66.3909 38.0851 66.7872 38.136 67.1727 38.136C67.6963 38.136 68.1291 38.0414 68.4709 37.8523C68.82 37.6632 68.9945 37.3978 68.9945 37.056C68.9945 36.7723 68.8745 36.5578 68.6345 36.4123C68.4018 36.2669 68.0818 36.1941 67.6745 36.1941H65.809V34.8632H67.5436C67.9 34.8632 68.1763 34.7905 68.3727 34.645C68.5764 34.4996 68.6782 34.2996 68.6782 34.045C68.6782 33.7468 68.5327 33.5141 68.2418 33.3468C67.9582 33.1795 67.5909 33.0959 67.14 33.0959C66.8054 33.0959 66.46 33.1432 66.1036 33.2377C65.7472 33.325 65.409 33.4595 65.089 33.6414L64.5545 32.2668C65.3618 31.8523 66.2345 31.645 67.1727 31.645C67.7691 31.645 68.3182 31.7323 68.82 31.9068C69.3218 32.0813 69.7218 32.3359 70.02 32.6704C70.3182 33.005 70.4673 33.3941 70.4673 33.8377C70.4673 34.2014 70.3691 34.525 70.1727 34.8087C69.9764 35.0923 69.7073 35.3105 69.3655 35.4632Z" fill="black"/>
<path d="M77.3538 37.8087H73.8082L73.1319 39.4451H71.3209L74.7246 31.8086H76.4701L79.8847 39.4451H78.0301L77.3538 37.8087ZM76.7974 36.4669L75.5864 33.5432L74.3755 36.4669H76.7974Z" fill="black"/>
<path d="M83.8538 36.3687H82.6319V39.4451H80.8756V31.8086H82.6319V34.8959H83.8974L85.9047 31.8086H87.7702L85.272 35.4959L87.8466 39.4451H85.8393L83.8538 36.3687Z" fill="black"/>
<path d="M93.6963 37.8087H90.1508L89.4744 39.4451H87.6635L91.0672 31.8086H92.8126L96.2272 39.4451H94.3727L93.6963 37.8087ZM93.1399 36.4669L91.929 33.5432L90.7181 36.4669H93.1399Z" fill="black"/>
<path d="M101.582 35.4632C102.025 35.6159 102.371 35.8559 102.618 36.1832C102.873 36.5032 103 36.8778 103 37.3069C103 37.7723 102.847 38.176 102.542 38.5178C102.236 38.8596 101.822 39.1214 101.298 39.3033C100.782 39.4851 100.215 39.576 99.5963 39.576C99.0727 39.576 98.549 39.5105 98.0254 39.3796C97.509 39.2487 97.0181 39.0487 96.5526 38.7796L97.0981 37.5141C97.4327 37.7178 97.7999 37.8742 98.1999 37.9832C98.6072 38.0851 99.0036 38.136 99.389 38.136C99.9127 38.136 100.345 38.0414 100.687 37.8523C101.036 37.6632 101.211 37.3978 101.211 37.056C101.211 36.7723 101.091 36.5578 100.851 36.4123C100.618 36.2669 100.298 36.1941 99.8909 36.1941H98.0254V34.8632H99.76C100.116 34.8632 100.393 34.7905 100.589 34.645C100.793 34.4996 100.895 34.2996 100.895 34.045C100.895 33.7468 100.749 33.5141 100.458 33.3468C100.175 33.1795 99.8072 33.0959 99.3563 33.0959C99.0218 33.0959 98.6763 33.1432 98.3199 33.2377C97.9636 33.325 97.6254 33.4595 97.3054 33.6414L96.7708 32.2668C97.5781 31.8523 98.4508 31.645 99.389 31.645C99.9854 31.645 100.535 31.7323 101.036 31.9068C101.538 32.0813 101.938 32.3359 102.236 32.6704C102.535 33.005 102.684 33.3941 102.684 33.8377C102.684 34.2014 102.585 34.525 102.389 34.8087C102.193 35.0923 101.924 35.3105 101.582 35.4632Z" fill="black"/>
<path fill-rule="evenodd" clip-rule="evenodd" d="M51.4775 0.772973V25.4713H101.82L102.069 24.347L51.4775 0.772973ZM52.657 6.61192H55.3663V3.88632L71.139 11.2359V15.674L57.8357 21.9456H52.657V6.61192ZM58.5575 24.2918V22.9093L71.8608 16.6378H75.9553V21.9456H75.0168V24.2918H58.5575ZM78.0126 24.2918V21.9456H77.1348V16.6378H77.8973V14.3851L90.1414 20.0905V24.2918H78.0126Z" fill="black"/>
<path fill-rule="evenodd" clip-rule="evenodd" d="M51.4774 0.772972V25.4713H1.13508L0.885986 24.347L51.4774 0.772972ZM50.2979 6.61192H47.5886V3.88632L31.8159 11.2359V15.674L45.1191 21.9456H50.2979V6.61192ZM44.3973 24.2918V22.9093L31.0941 16.6378H26.9995V21.9456H27.9381V24.2918H44.3973ZM24.9422 24.2918V21.9456H25.82V16.6378H25.0575V14.3851L12.8134 20.0905V24.2918H24.9422Z" fill="black"/>
</svg>
