<svg width="41" height="40" viewBox="0 0 41 40" fill="none" xmlns="http://www.w3.org/2000/svg">
<circle cx="20.6201" cy="20" r="20" fill="#FFC23C"/>
<path d="M28.9112 24.1019L26.4639 21.6546C25.5899 20.7806 24.104 21.1302 23.7544 22.2665C23.4922 23.0531 22.6181 23.4902 21.8315 23.3153C20.0834 22.8783 17.7235 20.6058 17.2865 18.7703C17.0243 17.9836 17.5487 17.1096 18.3353 16.8474C19.4716 16.4978 19.8212 15.0119 18.9471 14.1379L16.4998 11.6906C15.8006 11.0787 14.7517 11.0787 14.1399 11.6906L12.4792 13.3512C10.8186 15.0993 12.6541 19.7317 16.762 23.8397C20.87 27.9477 25.5025 29.8707 27.2505 28.1225L28.9112 26.4619C29.5231 25.7626 29.5231 24.7138 28.9112 24.1019Z" fill="#35455C"/>
</svg>
