<svg width="48" height="48" viewBox="0 0 48 48" fill="none" xmlns="http://www.w3.org/2000/svg">
<g clip-path="url(#clip0_13_1317)">
<path d="M42.8282 0H5.17181C2.32003 0 0 2.32012 0 5.17191V33.7907C0 36.6425 2.32003 38.9625 5.17181 38.9625H27.3126V33.0375C27.3126 28.2196 31.2322 24.3 36.05 24.3C40.8678 24.3 44.7874 28.2197 44.7874 33.0375V38.5759C46.6702 37.8022 48 35.9492 48 33.7907V5.17191C48 2.32012 45.6799 0 42.8282 0V0ZM13.4562 6.12497H34.5438C35.3203 6.12497 35.95 6.75459 35.95 7.53122C35.95 8.30784 35.3203 8.93747 34.5438 8.93747H13.4562C12.6797 8.93747 12.05 8.30784 12.05 7.53122C12.05 6.75459 12.6797 6.12497 13.4562 6.12497ZM22.6937 31.4313H7.43119C6.65466 31.4313 6.02494 30.8017 6.02494 30.025C6.02494 29.2484 6.65466 28.6188 7.43119 28.6188H22.6938C23.4705 28.6188 24.1 29.2484 24.1 30.025C24.1 30.8017 23.4705 31.4313 22.6937 31.4313ZM40.5686 20.9875H7.43119C6.65466 20.9875 6.02494 20.3579 6.02494 19.5813C6.02494 18.8047 6.65466 18.175 7.43119 18.175H40.5687C41.3454 18.175 41.975 18.8047 41.975 19.5813C41.9749 20.3579 41.3454 20.9875 40.5686 20.9875ZM40.5686 14.9625H7.43119C6.65466 14.9625 6.02494 14.3329 6.02494 13.5563C6.02494 12.7796 6.65466 12.15 7.43119 12.15H40.5687C41.3454 12.15 41.975 12.7796 41.975 13.5563C41.9749 14.3329 41.3454 14.9625 40.5686 14.9625Z" fill="#5D5241"/>
<path d="M36.0499 27.1123C32.7829 27.1123 30.125 29.7703 30.125 33.0373C30.125 36.3043 32.783 38.9622 36.0499 38.9622C39.317 38.9622 41.9748 36.3043 41.9748 33.0373C41.9748 29.7703 39.317 27.1123 36.0499 27.1123Z" fill="#5D5241"/>
<path d="M30.125 39.4531V46.5939C30.125 47.1125 30.4104 47.589 30.8677 47.8337C31.0755 47.9451 31.3036 48.0001 31.5311 48.0001C31.804 48.0001 32.076 47.9208 32.3112 47.7639L36.0499 45.2714L39.7886 47.7639C40.024 47.9208 40.2958 48.0001 40.5688 48.0001C40.7962 48.0001 41.0243 47.945 41.2321 47.8338C41.6894 47.5891 41.9748 47.1126 41.9748 46.5939V39.4531C40.4164 40.8934 38.3343 41.7751 36.0499 41.7751C33.7655 41.7751 31.6834 40.8934 30.125 39.4531Z" fill="#5D5241"/>
</g>
<defs>
<clipPath id="clip0_13_1317">
<rect width="48" height="48" fill="white"/>
</clipPath>
</defs>
</svg>
