<svg width="49" height="48" viewBox="0 0 49 48" fill="none" xmlns="http://www.w3.org/2000/svg">
<g clip-path="url(#clip0_13_1307)">
<path d="M24.2476 39.5293C23.4691 39.5293 22.8358 40.1625 22.8358 40.9411C22.9133 42.814 25.5822 42.8135 25.6593 40.9411C25.6593 40.1625 25.0261 39.5293 24.2476 39.5293Z" fill="#5D5241"/>
<path d="M36.9535 39.5293C36.175 39.5293 35.5417 40.1625 35.5417 40.9411C35.6192 42.814 38.2881 42.8135 38.3653 40.9411C38.3653 40.1625 37.7321 39.5293 36.9535 39.5293Z" fill="#5D5241"/>
<path d="M41.1888 33.8828H7.30642C-2.06035 34.2716 -2.05311 47.6152 7.30642 48.0005H41.1888C50.5555 47.6117 50.5483 34.2681 41.1888 33.8828ZM11.5417 45.1769C9.20647 45.1769 7.30642 43.2771 7.30642 40.9416C7.53908 35.3229 15.5453 35.3246 15.777 40.9416C15.777 43.2771 13.8771 45.1769 11.5417 45.1769ZM24.2476 45.1769C21.9123 45.1769 20.0123 43.2771 20.0123 40.9416C20.245 35.3229 28.2512 35.3246 28.4829 40.9416C28.4829 43.2771 26.583 45.1769 24.2476 45.1769ZM36.9535 45.1769C34.618 45.1769 32.7182 43.2771 32.7182 40.9416C32.9507 35.3229 40.9571 35.3246 41.1888 40.9416C41.1888 43.2771 39.2889 45.1769 36.9535 45.1769Z" fill="#5D5241"/>
<path d="M11.5418 39.5293C10.7633 39.5293 10.13 40.1625 10.13 40.9411C10.2075 42.814 12.8764 42.8135 12.9535 40.9411C12.9535 40.1625 12.3202 39.5293 11.5418 39.5293Z" fill="#5D5241"/>
<path d="M4.48291 21.1768H15.777V31.0591H4.48291V21.1768Z" fill="#5D5241"/>
<path d="M18.6006 21.1768H29.8947V31.0591H18.6006V21.1768Z" fill="#5D5241"/>
<path d="M32.7181 21.1768H44.0123V31.0591H32.7181V21.1768Z" fill="#5D5241"/>
<path d="M22.8359 7.30165C21.5202 7.76828 20.5013 8.86711 20.1475 10.2315L16.0728 11.5898L14.4377 16.4948L17.1164 17.3877L18.3049 13.822L20.4248 13.1155C21.9477 16.3185 26.5492 16.3166 28.0707 13.1155L30.1904 13.822L31.3789 17.3877L34.0576 16.4948L32.4226 11.5898L28.3479 10.2315C27.994 8.86711 26.9751 7.76828 25.6594 7.30165V2.82353H36.9535V0H11.5417V2.82353H22.8359V7.30165Z" fill="#5D5241"/>
</g>
<defs>
<clipPath id="clip0_13_1307">
<rect width="48" height="48" fill="white" transform="translate(0.247559)"/>
</clipPath>
</defs>
</svg>
