<svg width="49" height="48" viewBox="0 0 49 48" fill="none" xmlns="http://www.w3.org/2000/svg">
<g clip-path="url(#clip0_13_1303)">
<path d="M24.1686 12.1553C17.6223 12.1553 12.2961 17.4814 12.2961 24.0281C12.2961 30.5745 17.6223 35.9006 24.1686 35.9006C30.7154 35.9006 36.0415 30.5745 36.0415 24.0281C36.0415 17.4814 30.7154 12.1553 24.1686 12.1553ZM30.489 25.0224L26.2286 29.2828C25.3936 30.1174 24.284 30.577 23.1037 30.577C21.923 30.577 20.8134 30.1174 19.9792 29.2828L17.8482 27.1526C16.1256 25.4292 16.126 22.6259 17.8486 20.9033C18.6828 20.0687 19.7924 19.6087 20.9731 19.6087C21.6682 19.6087 22.3387 19.768 22.9426 20.0694L24.2397 18.7727C25.0743 17.9381 26.1839 17.4785 27.3642 17.4785C28.5445 17.4785 29.6544 17.9381 30.4887 18.7727C31.3236 19.6076 31.7832 20.7172 31.7832 21.8975C31.7836 23.0782 31.3236 24.1878 30.489 25.0224Z" fill="#5D5241"/>
<path d="M46.6967 20.3491L44.0172 17.5791L44.5566 13.7632C44.9521 10.968 43.0116 8.29756 40.2313 7.81014L36.4359 7.14401L34.629 3.73973C33.7121 2.01122 31.9092 0.9375 29.9244 0.9375C29.1198 0.9375 28.3478 1.11548 27.6304 1.46594L24.1686 3.15856L20.7069 1.46594C19.9895 1.11548 19.2179 0.9375 18.4129 0.9375C16.4281 0.9375 14.6256 2.01122 13.7083 3.73973L11.9021 7.14401L8.10637 7.81014C5.32574 8.29756 3.3852 10.9683 3.78071 13.7632L4.32014 17.5791L1.64059 20.3491C-0.321927 22.3779 -0.321927 25.6786 1.64059 27.7074L4.32014 30.4774L3.78071 34.2933C3.38557 37.0882 5.32574 39.7586 8.10637 40.2464L11.9021 40.9125L13.7083 44.3171C14.6256 46.0453 16.4281 47.1186 18.4129 47.1186C19.2179 47.1186 19.9895 46.941 20.7069 46.5902L24.1686 44.8979L27.6304 46.5902C28.3475 46.941 29.1194 47.1186 29.9244 47.1186H29.9247C31.9092 47.1186 33.7121 46.0453 34.629 44.3168L36.4359 40.9121L40.2309 40.2464C43.0116 39.7586 44.9517 37.0882 44.5566 34.2933L44.0172 30.4774L46.6967 27.7074C48.6596 25.6786 48.6596 22.3776 46.6967 20.3491ZM24.1686 38.7138C16.0714 38.7138 9.48331 32.1257 9.48331 24.0284C9.48331 15.9308 16.0714 9.34273 24.1686 9.34273C32.2663 9.34273 38.8544 15.9308 38.8544 24.0284C38.8544 32.1257 32.2663 38.7138 24.1686 38.7138Z" fill="#5D5241"/>
<path d="M27.3641 20.292C26.9349 20.292 26.5313 20.459 26.2281 20.7622L24.1206 22.8697C23.7207 23.2891 23.1117 23.4136 22.5894 23.2078C22.4393 23.1488 22.2968 23.0631 22.1701 22.9507C22.1493 22.932 22.1288 22.9126 22.109 22.8928C21.8054 22.5896 21.4022 22.4222 20.973 22.4222C20.5438 22.4222 20.1406 22.5892 19.8377 22.8928C19.2108 23.5194 19.2108 24.5382 19.837 25.1644L21.9676 27.295C22.2712 27.5983 22.6744 27.7652 23.1036 27.7652C23.5328 27.7652 23.936 27.5983 24.2396 27.295L28.5001 23.0342C28.8033 22.731 28.9707 22.3278 28.9703 21.8986C28.9703 21.4697 28.8033 21.0658 28.4997 20.7622C28.1965 20.459 27.7933 20.292 27.3641 20.292Z" fill="#5D5241"/>
</g>
<defs>
<clipPath id="clip0_13_1303">
<rect width="48" height="48" fill="white" transform="translate(0.168701)"/>
</clipPath>
</defs>
</svg>
