<svg width="48" height="48" viewBox="0 0 48 48" fill="none" xmlns="http://www.w3.org/2000/svg">
<g clip-path="url(#clip0_13_1266)">
<path d="M36.1671 20.4873C35.0995 22.569 32.9354 23.9997 30.4389 23.9997C27.9425 23.9997 25.7793 22.569 24.7108 20.4873H0V42.7316H36.4632C35.2634 41.3054 34.5363 39.4691 34.5363 37.4634C34.5363 33.5481 37.2989 30.2693 40.9752 29.4625V20.4873H36.1671ZM20.4876 38.6342C16.6085 38.6342 13.4628 35.4886 13.4628 31.6094C13.4628 27.7303 16.6076 24.5846 20.4876 24.5846C24.3676 24.5846 27.5124 27.7294 27.5124 31.6094C27.5124 35.4895 24.3667 38.6342 20.4876 38.6342Z" fill="#5D5241"/>
<path d="M42.73 42.7287C45.6396 42.7287 47.9982 40.37 47.9982 37.4605C47.9982 34.551 45.6396 32.1924 42.73 32.1924C39.8205 32.1924 37.4619 34.551 37.4619 37.4605C37.4619 40.37 39.8205 42.7287 42.73 42.7287Z" fill="#5D5241"/>
<path d="M30.4389 21.0736C32.3788 21.0736 33.9513 19.5011 33.9513 17.5612C33.9513 15.6214 32.3788 14.0488 30.4389 14.0488C28.4991 14.0488 26.9265 15.6214 26.9265 17.5612C26.9265 19.5011 28.4991 21.0736 30.4389 21.0736Z" fill="#5D5241"/>
<path d="M7.6759 5.26855L5.45654 17.5615H24.0001C24.0001 14.0111 26.8886 11.1225 30.439 11.1225C33.9894 11.1225 36.8779 14.0111 36.8779 17.5615H40.9753H43.9018V20.488V29.3618C44.2504 29.4125 44.5927 29.4832 44.9259 29.5755L48.0001 12.5478L7.6759 5.26855Z" fill="#5D5241"/>
</g>
<defs>
<clipPath id="clip0_13_1266">
<rect width="48" height="48" fill="white"/>
</clipPath>
</defs>
</svg>
