<svg width="49" height="48" viewBox="0 0 49 48" fill="none" xmlns="http://www.w3.org/2000/svg">
<g clip-path="url(#clip0_13_1294)">
<path d="M16.4451 23.1536L20.6804 20.6124V15.4346L16.4451 17.9757V23.1536Z" fill="#5D5241"/>
<path d="M29.1509 10.1172H40.445V12.9407H29.1509V10.1172Z" fill="#5D5241"/>
<path d="M10.7184 12.9405L15.0333 15.5294L19.3482 12.9405L15.0333 10.3516L10.7184 12.9405Z" fill="#5D5241"/>
<path d="M0.915649 40.942H17.8568V43.7655H13.6215V46.589H36.2098V43.7655H31.9745V40.942H48.9156V35.2949H0.915649V40.942Z" fill="#5D5241"/>
<path d="M0.915649 1.41211V32.4709H48.9156V1.41211H0.915649ZM23.5039 22.2108L15.0333 27.2931L6.56271 22.2108V12.1415L15.0333 7.05917L23.5039 12.1415V22.2108ZM37.6215 27.0584H26.3274V24.2349H37.6215V27.0584ZM43.2686 21.4114H26.3274V18.5878H43.2686V21.4114ZM43.2686 15.7643H26.3274V7.29371H43.2686V15.7643Z" fill="#5D5241"/>
<path d="M9.38623 20.6124L13.6215 23.1536V17.9757L9.38623 15.4346V20.6124Z" fill="#5D5241"/>
</g>
<defs>
<clipPath id="clip0_13_1294">
<rect width="48" height="48" fill="white" transform="translate(0.915649)"/>
</clipPath>
</defs>
</svg>
