<?xml version="1.0" encoding="utf-8"?>
<!-- Generator: Adobe Illustrator 25.0.0, SVG Export Plug-In . SVG Version: 6.00 Build 0)  -->
<svg version="1.1" id="Слой_1" xmlns="http://www.w3.org/2000/svg" xmlns:xlink="http://www.w3.org/1999/xlink" x="0px" y="0px"
	 viewBox="0 0 57 42" style="enable-background:new 0 0 57 42;" xml:space="preserve">
<style type="text/css">
	.st0{clip-path:url(#SVGID_2_);}
	.st1{fill:none;stroke:#DABD8E;stroke-width:1.5;}
	.st2{fill:none;stroke:#DABD8E;stroke-width:0.5;}
</style>
<g>
	<defs>
		<rect id="SVGID_1_" x="0.6" y="-9.7" width="56" height="42"/>
	</defs>
	<clipPath id="SVGID_2_">
		<use xlink:href="#SVGID_1_"  style="overflow:visible;"/>
	</clipPath>
	<g class="st0">
		<path class="st1" d="M55.7,31.6H3.2c0.2-0.1,0.4-0.3,0.6-0.4c1.7-1.1,4.1-2.6,6.9-4.2c5.5-3.3,12.3-7.1,17.7-9.3
			c5.4-2.2,12.5-4.1,18.2-5.4c2.9-0.6,5.4-1.2,7.2-1.5c0.8-0.2,1.5-0.3,2-0.4V31.6z"/>
		<path class="st2" d="M55.7,10.9v20.8L40.8,14.3v17.3L30.4,16.9v14.7l-7.5-11.1v11.1l-5.2-8.4v8.4"/>
	</g>
</g>
</svg>
