<svg width="14" height="8" viewBox="0 0 14 8" fill="none" xmlns="http://www.w3.org/2000/svg">
<path fill-rule="evenodd" clip-rule="evenodd" d="M5.66049 0.014708C5.15794 0.0683049 4.91848 0.154798 4.74686 0.344767C4.60739 0.499159 4.61582 0.551033 4.78634 0.587621C5.07768 0.650105 5.27673 0.798399 5.3569 1.01268C5.50845 1.41772 5.55792 2.43111 5.46002 3.12486C5.38521 3.65498 5.2945 3.85452 5.1146 3.88493C4.87576 3.92526 4.5527 3.66507 4.23047 3.17282C3.94761 2.74074 3.25205 1.39185 3.0104 0.806739C2.9626 0.690986 2.88592 0.561971 2.83654 0.514171C2.66125 0.34452 2.65581 0.343837 1.44334 0.344028C0.788012 0.34411 0.301647 0.355322 0.242635 0.371702C0.0921539 0.413513 0 0.52016 0 0.652484C0 0.915246 0.987906 2.90995 1.67551 4.03549C2.07797 4.69432 2.67968 5.53355 3.16555 6.11376C3.72438 6.7811 4.72695 7.47053 5.52376 7.7354C6.06783 7.91626 6.18894 7.93182 7.05511 7.93201L7.83445 7.9322L7.9575 7.86332C8.13413 7.76444 8.1738 7.66198 8.20451 7.22538C8.2184 7.02759 8.24665 6.80421 8.26727 6.72901C8.36405 6.37606 8.58429 6.11374 8.78388 6.11374C9.00316 6.11374 9.18802 6.25869 9.7256 6.85214C10.3612 7.55377 10.5533 7.71727 10.9245 7.87226C11.1729 7.97601 11.3502 7.98435 12.6199 7.952C13.4481 7.93089 13.6217 7.91949 13.7137 7.88025C14.1503 7.694 14.0842 7.29971 13.4888 6.54022C13.4052 6.43349 13.001 6.01051 12.5907 5.60027C11.8021 4.81177 11.7312 4.7206 11.7312 4.49541C11.7312 4.26136 11.8299 4.10817 12.8388 2.77766C13.7676 1.55286 14.1519 0.762057 13.9458 0.500034C13.8252 0.346763 13.741 0.338696 12.3395 0.346489C11.6364 0.3504 11.0198 0.362733 10.9693 0.373889C10.8138 0.408208 10.7358 0.514773 10.554 0.941087C10.2246 1.71368 9.93315 2.2538 9.47216 2.94608C9.18785 3.37302 8.85908 3.74473 8.68568 3.83527C8.504 3.9301 8.29708 3.78148 8.22587 3.50496C8.18647 3.35207 8.18053 2.7997 8.20361 1.43768C8.21605 0.703264 8.21277 0.618056 8.16694 0.48658C8.02469 0.0784226 7.82622 0.0152003 6.64493 0.001719C6.21629 -0.00314847 5.77329 0.00267605 5.66049 0.014708Z" fill="#2977F6"/>
</svg>
