<svg width="16" height="16" viewBox="0 0 16 16" fill="none" xmlns="http://www.w3.org/2000/svg">
<g clip-path="url(#clip0_246_18)">
<path d="M15.282 4.14575L15.301 4.27019C15.1169 3.61686 14.6198 3.11273 13.988 2.92924L13.9747 2.92606C12.7868 2.60352 8.00644 2.60352 8.00644 2.60352C8.00644 2.60352 3.23819 2.59718 2.03819 2.92606C1.39438 3.11273 0.896602 3.61686 0.715649 4.25686L0.712475 4.27019C0.268665 6.58829 0.265491 9.37368 0.732157 11.8556L0.712475 11.7299C0.896602 12.3832 1.39374 12.8873 2.02549 13.0708L2.03882 13.074C3.22549 13.3972 8.00708 13.3972 8.00708 13.3972C8.00708 13.3972 12.7747 13.3972 13.9753 13.074C14.6198 12.8873 15.1176 12.3832 15.2985 11.7432L15.3017 11.7299C15.5036 10.6518 15.6191 9.41114 15.6191 8.14384C15.6191 8.09749 15.6191 8.05051 15.6185 8.00352C15.6191 7.96035 15.6191 7.90892 15.6191 7.85749C15.6191 6.58956 15.5036 5.34892 15.282 4.14575ZM6.48136 10.3184V5.68797L10.4598 8.0067L6.48136 10.3184Z" fill="#FF0000"/>
</g>
<defs>
<clipPath id="clip0_246_18">
<rect width="15.2381" height="15.2381" fill="white" transform="translate(0.380859 0.380859)"/>
</clipPath>
</defs>
</svg>
