<svg width="24" height="24" viewBox="0 0 24 24" fill="none" xmlns="http://www.w3.org/2000/svg">
<path fill-rule="evenodd" clip-rule="evenodd" d="M5.19596 2.05438L4.93659 2.1088L4.69706 2.20561L4.45749 2.30241L4.23724 2.43344L4.01703 2.56451L3.76774 2.79559L3.51849 3.02666L3.25275 3.38158L2.98702 3.7365L2.83358 4.00996L2.68014 4.28343L2.53744 4.61729L2.39469 4.95115L2.29931 5.28141L2.20389 5.61168L2.14192 5.92421L2.08 6.23674L2.04002 6.64131L2 7.04588L2.00039 7.46171L2.00074 7.87753L2.05935 8.40246L2.11795 8.92739L2.21505 9.39865L2.31215 9.86991L2.4239 10.2606L2.53564 10.6512L2.68295 11.0614L2.83022 11.4716L3.0037 11.8785L3.17713 12.2854L3.39386 12.7184L3.61063 13.1515L3.7882 13.464L3.96581 13.7765L4.33138 14.3375L4.6969 14.8983L4.93722 15.2164L5.17753 15.5345L5.4481 15.8666L5.71867 16.1987L6.21812 16.7456L6.71757 17.2925L7.1016 17.6459L7.48563 17.9992L7.85655 18.3121L8.22746 18.6249L8.46173 18.8062L8.69599 18.9874L8.88145 19.0368L9.0669 19.0862L9.25166 19.0368L9.43641 18.9874L9.5585 18.8941L9.68063 18.801L9.75442 18.6523L9.82825 18.5036L9.82716 18.2692L9.82603 18.0348L9.74907 17.9046L9.67208 17.7744L9.14499 17.3436L8.6179 16.9129L8.07703 16.4021L7.53616 15.8913L7.08735 15.3808L6.63854 14.8704L6.2565 14.3625L5.87442 13.8547L5.58394 13.4054L5.29345 12.9561L5.08925 12.5963L4.88505 12.2364L4.65848 11.7563L4.43195 11.2763L4.27304 10.8661L4.11414 10.4559L3.97366 9.99148L3.83318 9.5271L3.73975 9.05389L3.64632 8.58072L3.60403 8.15396L3.56175 7.72724V7.38443V7.04159L3.62027 6.59482L3.6788 6.14802L3.77699 5.809L3.87519 5.46999L3.9762 5.22832L4.07716 4.98662L4.25872 4.67921L4.44023 4.37183L4.63186 4.15181L4.82352 3.93183L4.964 3.82803L5.10448 3.72419L5.35799 3.63817L5.61154 3.5521L5.87665 3.57379L6.14179 3.59547L6.36399 3.69728L6.58615 3.79904L6.91876 4.14072L7.25137 4.48239L7.50516 4.80398L7.75894 5.12562L7.96224 5.45956L8.16554 5.7935L8.24601 6.00867L8.32648 6.22385L8.37181 6.48841L8.41714 6.75296L8.35092 7.02143L8.2847 7.28993L8.15847 7.50323L8.03225 7.7165L7.11273 8.65659L6.19321 9.59668L6.1414 9.78193L6.08955 9.96718L6.11598 10.1334L6.14245 10.2996L6.36051 10.7098L6.57857 11.12L6.94367 11.6779L7.30877 12.2356L7.61054 12.635L7.9123 13.0343L8.30844 13.5031L8.70458 13.9719L9.36403 14.6317L10.0235 15.2915L10.492 15.6879L10.9605 16.0843L11.3596 16.3862L11.7587 16.6882L12.3162 17.0535L12.8737 17.4188L13.2836 17.637L13.6936 17.8551L13.8597 17.8816L14.0258 17.9081L14.211 17.8562L14.3961 17.8044L15.3357 16.8843L16.2752 15.9643L16.4884 15.838L16.7015 15.7117L16.9699 15.6454L17.2382 15.5791L17.5026 15.6245L17.767 15.6699L17.9821 15.7504L18.1971 15.8309L18.5309 16.0343L18.8646 16.2377L19.186 16.4916L19.5075 16.7456L19.8489 17.0784L20.1904 17.4112L20.2986 17.6448L20.4068 17.8785L20.408 18.2106L20.4091 18.5426L20.2872 18.8001L20.1652 19.0576L19.9943 19.2237L19.8234 19.3897L19.5866 19.5603L19.3497 19.7308L19.0399 19.8897L18.7302 20.0486L18.3694 20.1646L18.0086 20.2806L17.6666 20.3407L17.3246 20.4009L16.8366 20.4241L16.3485 20.4474L15.9191 20.4014L15.4896 20.3555L15.0159 20.2604L14.5422 20.1653L14.0788 20.0252L13.6155 19.8851L13.1079 19.6826L12.6004 19.4802L12.3622 19.4809L12.1241 19.4816L11.9669 19.5857L11.8096 19.6898L11.7169 19.839L11.6243 19.9881V20.242V20.4959L11.7169 20.6451L11.8096 20.7942L11.9512 20.8855L12.0928 20.9768L12.6662 21.1957L13.2396 21.4146L13.779 21.5687L14.3183 21.7227L14.7141 21.8026L15.11 21.8825L15.6119 21.9412L16.1138 22H16.5296H16.9454L17.3498 21.9591L17.7541 21.9182L18.1446 21.8405L18.535 21.7627L18.7888 21.6813L19.0426 21.5999L19.3744 21.4596L19.7063 21.3193L19.9796 21.1639L20.2529 21.0084L20.5457 20.7946L20.8386 20.5808L21.1314 20.2844L21.4242 19.9881L21.5552 19.7646L21.6862 19.5411L21.7824 19.3028L21.8786 19.0645L21.9393 18.745L22 18.4254L21.9777 18.0514L21.9554 17.6774L21.8358 17.3037L21.7162 16.93L21.5167 16.623L21.3173 16.3159L20.9998 16.0087L20.6824 15.7015L20.292 15.3803L19.9015 15.0591L19.6087 14.8643L19.3159 14.6695L19.1011 14.5481L18.8864 14.4266L18.5936 14.3093L18.3007 14.192L18.0079 14.1228L17.7151 14.0535L17.2856 14.0546L16.8561 14.0557L16.587 14.122L16.3179 14.1882L15.9953 14.3395L15.6726 14.4908L15.38 14.7073L15.0874 14.9238L14.4591 15.5365L13.8307 16.1492L13.5474 15.9821L13.2641 15.8151L12.8151 15.5038L12.3661 15.1925L12.0537 14.9488L11.7414 14.7051L11.2533 14.2749L10.7653 13.8448L10.3146 13.3809L9.86386 12.9171L9.51352 12.5069L9.16319 12.0967L8.9276 11.7842L8.69197 11.4716L8.43674 11.1005L8.18147 10.7294L8.0144 10.4459L7.84737 10.1624L8.45974 9.5337L9.0721 8.90501L9.28852 8.61221L9.5049 8.31945L9.65607 7.9966L9.80729 7.6738L9.87347 7.40451L9.93969 7.13527L9.94078 6.70554L9.94187 6.27581L9.87265 5.98281L9.80342 5.68981L9.68621 5.39682L9.56901 5.10382L9.44762 4.88895L9.32623 4.67409L9.13156 4.38109L8.93689 4.08809L8.61587 3.69743L8.29485 3.30677L7.98785 2.98916L7.68085 2.67151L7.37393 2.47196L7.06705 2.27241L6.69067 2.15142L6.31432 2.03039L5.88484 2.0152L5.45536 2L5.19596 2.05438ZM12.1264 2.91388L11.9257 3.01647L11.8196 3.17691L11.7135 3.33732L11.6948 3.55644L11.6761 3.77556L11.7703 3.95136L11.8645 4.12716L12.0255 4.24061L12.1865 4.35406L12.8229 4.40359L13.4593 4.45309L13.635 4.47993L13.8107 4.50673L14.2011 4.60174L14.5916 4.69671L14.9039 4.80813L15.2163 4.91954L15.5482 5.07327L15.88 5.22699L16.201 5.42647L16.5219 5.62594L16.8407 5.86874L17.1594 6.11153L17.5193 6.47165L17.8793 6.83176L18.1219 7.1507L18.3646 7.46964L18.5628 7.78951L18.7611 8.10939L18.915 8.44274L19.0688 8.77605L19.1829 9.08718L19.297 9.39826L19.3917 9.8099L19.4864 10.2215L19.5121 10.3777L19.5378 10.5338L19.586 11.1696L19.6342 11.8055L19.7484 11.9677L19.8625 12.1297L20.0382 12.224L20.2139 12.3183L20.4329 12.2996L20.6519 12.2809L20.813 12.1742L20.9742 12.0674L21.0782 11.8548L21.1822 11.6421L21.1562 11.1281L21.1302 10.6142L21.0703 10.2029L21.0103 9.79178L20.8961 9.33654L20.7818 8.8813L20.6195 8.44625L20.4572 8.01125L20.2343 7.57008L20.0115 7.1289L19.7544 6.74144L19.4972 6.35394L19.2788 6.08048L19.0604 5.80701L18.661 5.40158L18.2617 4.99615L17.9493 4.74421L17.637 4.49227L17.2466 4.23291L16.8561 3.97355L16.3681 3.73142L15.88 3.48933L15.5052 3.35076L15.1303 3.21219L14.6657 3.09542L14.2011 2.97865L13.7717 2.91591L13.3422 2.85321L12.8346 2.83227L12.327 2.81133L12.1264 2.91388ZM13.9278 6.42528L13.8107 6.47114L13.7241 6.52068L13.6375 6.57025L13.5415 6.73554L13.4456 6.90087L13.42 7.04116L13.3944 7.18144L13.4406 7.35302L13.4867 7.5246L13.6487 7.68552L13.8107 7.84643L14.084 7.93581L14.3573 8.0252L14.5723 8.13267L14.7873 8.24018L15.0346 8.42621L15.282 8.61221L15.4712 8.83981L15.6606 9.06741L15.7957 9.31239L15.9309 9.55738L16.0347 9.85038L16.1385 10.1434L16.2015 10.2403L16.2646 10.3372L16.3456 10.4052L16.4266 10.4732L16.5909 10.5376L16.7552 10.602L16.9275 10.5761L17.0997 10.5503L17.2736 10.44L17.4474 10.3297L17.5174 10.1822L17.5873 10.0347L17.6075 9.88389L17.6277 9.73314L17.5599 9.49112L17.492 9.24907L17.3428 8.90478L17.1935 8.56052L17.006 8.27761L16.8185 7.99473L16.5054 7.66622L16.1924 7.33775L15.8844 7.10804L15.5764 6.87833L15.2597 6.7257L14.943 6.57306L14.6354 6.47325L14.3278 6.37347L14.1864 6.37644L14.045 6.37941L13.9278 6.42528Z" fill="#323C49"/>
</svg>
