<svg width="15" height="15" viewBox="0 0 15 15" fill="none" xmlns="http://www.w3.org/2000/svg">
<path d="M0.679688 1.5C0.679688 0.947715 1.1274 0.5 1.67969 0.5H5.67969C6.23197 0.5 6.67969 0.947715 6.67969 1.5V5.5C6.67969 6.05228 6.23197 6.5 5.67969 6.5H1.67969C1.1274 6.5 0.679688 6.05228 0.679688 5.5V1.5Z" fill="#35455C"/>
<path d="M8.67969 1.5C8.67969 0.947715 9.1274 0.5 9.67969 0.5H13.6797C14.232 0.5 14.6797 0.947715 14.6797 1.5V5.5C14.6797 6.05228 14.232 6.5 13.6797 6.5H9.67969C9.1274 6.5 8.67969 6.05228 8.67969 5.5V1.5Z" fill="#35455C"/>
<path d="M0.679688 9.5C0.679688 8.94772 1.1274 8.5 1.67969 8.5H5.67969C6.23197 8.5 6.67969 8.94772 6.67969 9.5V13.5C6.67969 14.0523 6.23197 14.5 5.67969 14.5H1.67969C1.1274 14.5 0.679688 14.0523 0.679688 13.5V9.5Z" fill="#35455C"/>
<path d="M8.67969 9.5C8.67969 8.94772 9.1274 8.5 9.67969 8.5H13.6797C14.232 8.5 14.6797 8.94772 14.6797 9.5V13.5C14.6797 14.0523 14.232 14.5 13.6797 14.5H9.67969C9.1274 14.5 8.67969 14.0523 8.67969 13.5V9.5Z" fill="#35455C"/>
</svg>
