<svg width="33" height="32" viewBox="0 0 33 32" fill="none" xmlns="http://www.w3.org/2000/svg">
<g clip-path="url(#clip0_48_3262)">
<path d="M13.6255 13.0346C13.6255 8.50344 16.5686 4.64744 20.6415 3.28151C18.9279 2.22144 16.9389 1.64163 14.8982 1.62538C11.926 1.60207 8.18749 2.74182 6.07686 4.83563C3.96355 6.93225 2.79961 9.72744 2.79961 12.7063C2.79961 13.4428 2.61736 14.1762 2.27249 14.8272L0.397735 18.3665C0.0933596 18.9389 0.108422 19.6147 0.438047 20.1744C0.767797 20.7342 1.35186 21.0753 2.00048 21.0867L2.79667 21.0868V23.9202C2.79667 25.6144 4.1738 26.9928 5.86649 26.9928H7.86174V27.8214C7.86174 29.2294 9.0063 30.3749 10.4132 30.3749H20.1189C21.5257 30.3749 22.6703 29.2294 22.6703 27.8214V25.9865C22.6703 25.0767 22.7399 24.167 22.8778 23.2667C17.6907 22.7529 13.6255 18.3601 13.6255 13.0346Z" fill="#35455C"/>
<path d="M23.7832 4.62918C19.1459 4.62918 15.3867 8.3933 15.3867 13.0366C15.3867 17.6799 19.1459 21.444 23.7832 21.444C28.4204 21.444 32.1796 17.6799 32.1796 13.0366C32.1796 8.3933 28.4203 4.62918 23.7832 4.62918ZM24.7206 17.9712C24.7206 18.4889 24.3008 18.9087 23.7831 18.9087C23.2653 18.9087 22.8456 18.4889 22.8456 17.9712V16.9962C22.8456 16.4785 23.2653 16.0587 23.7831 16.0587C24.3008 16.0587 24.7206 16.4785 24.7206 16.9962V17.9712ZM25.0185 13.8255C24.8403 13.894 24.7206 14.0797 24.7206 14.2875C24.7206 14.8053 24.3008 15.225 23.7831 15.225C23.2653 15.225 22.8456 14.8053 22.8456 14.2875C22.8456 13.3092 23.4485 12.4201 24.3459 12.0753C24.9946 11.826 25.3976 11.1906 25.3488 10.4941C25.2945 9.71899 24.6432 9.08105 23.8662 9.04168C23.4151 9.01843 22.9912 9.18124 22.6732 9.4993C22.3071 9.86542 21.7135 9.86542 21.3473 9.4993C20.9812 9.13318 20.9812 8.53961 21.3473 8.17349C22.035 7.48587 22.9876 7.12024 23.961 7.16905C25.697 7.25699 27.0977 8.63005 27.2191 10.363C27.326 11.8871 26.4417 13.2786 25.0185 13.8255Z" fill="#35455C"/>
</g>
<defs>
<clipPath id="clip0_48_3262">
<rect width="32" height="32" fill="white" transform="translate(0.179688)"/>
</clipPath>
</defs>
</svg>
