<svg width="33" height="32" viewBox="0 0 33 32" fill="none" xmlns="http://www.w3.org/2000/svg">
<g clip-path="url(#clip0_48_3200)">
<path d="M28.513 0H3.84635C1.82369 0 0.179688 1.644 0.179688 3.66667V21.6667C0.179688 23.6893 1.82369 25.3333 3.84635 25.3333H5.51302V31C5.51302 31.404 5.75702 31.7693 6.13035 31.924C6.25435 31.9747 6.38369 32 6.51302 32C6.77302 32 7.02902 31.8987 7.21969 31.7067L13.593 25.3333H28.513C30.5357 25.3333 32.1797 23.6893 32.1797 21.6667V3.66667C32.1797 1.644 30.5357 0 28.513 0ZM18.8997 18.5213C18.8997 19.3347 18.233 20.0013 17.4064 20.0013H14.953C14.233 20.0013 13.4597 19.468 13.4597 18.2813V17.5613H18.8997V18.5213ZM19.9797 14.5747C19.4197 15.028 19.0597 15.6147 18.9397 16.228H13.433C13.3397 15.628 13.0064 15.068 12.4597 14.6413C10.9797 13.4813 10.1397 11.7347 10.1797 9.84133C10.2464 6.668 12.8997 4.04133 16.0864 4.00133C17.6997 3.96133 19.2464 4.588 20.4064 5.73467C21.553 6.85467 22.1797 8.36133 22.1797 9.96133C22.1797 11.7613 21.381 13.4413 19.9797 14.5747Z" fill="white"/>
</g>
<defs>
<clipPath id="clip0_48_3200">
<rect width="32" height="32" fill="white" transform="translate(0.179688)"/>
</clipPath>
</defs>
</svg>
