<svg width="33" height="32" viewBox="0 0 33 32" fill="none" xmlns="http://www.w3.org/2000/svg">
<g clip-path="url(#clip0_48_3220)">
<path d="M10.8398 0C11.7278 0.891125 12.6133 1.76325 13.4815 2.61775C14.3707 3.49306 15.2837 4.39256 16.1855 5.299L21.5303 0H10.8398Z" fill="#35455C"/>
<path d="M0.179688 9.88394V21.3086C1.06419 20.6908 1.94162 20.072 2.80269 19.4646C4.58962 18.2039 6.42788 16.9071 8.33594 15.6143V15.5964L0.179688 9.88394Z" fill="#35455C"/>
<path d="M0.981445 8.15625L8.33607 13.3073V8.15625H0.981445Z" fill="#35455C"/>
<path d="M3.88356 20.9966C2.6735 21.8503 1.43156 22.7262 0.179688 23.5925V23.5948L8.33594 29.3073V17.8848C6.81381 18.9301 5.33125 19.9753 3.88356 20.9966Z" fill="#35455C"/>
<path d="M28.1667 3.95406C26.8709 2.67856 25.5367 1.36538 24.2072 0H24.194L17.8584 6.28125H30.5178C29.7326 5.49606 28.9406 4.71575 28.1667 3.95406Z" fill="#35455C"/>
<path d="M12.1667 3.95406C10.8708 2.67856 9.53665 1.36538 8.20715 0H8.19396L1.8584 6.28125H14.5177C13.7326 5.49606 12.9405 4.71575 12.1667 3.95406Z" fill="#35455C"/>
<path d="M0.179688 25.8839V32H8.33594V31.5964L0.179688 25.8839Z" fill="#35455C"/>
<path d="M24.0234 8.15625V13.2926L31.3572 8.15625H24.0234Z" fill="#35455C"/>
<path d="M26.8398 0C27.7278 0.891125 28.6133 1.76325 29.4815 2.61775C30.3688 3.49112 31.2797 4.38863 32.1796 5.29306V0H26.8398Z" fill="#35455C"/>
<path d="M24.0234 31.5818V32H32.1797V25.8693L24.0234 31.5818Z" fill="#35455C"/>
<path d="M0.179688 0V5.30487L5.53044 0H0.179688Z" fill="#35455C"/>
<path d="M24.0234 15.5818V15.6284C25.9241 16.9167 27.7558 18.2088 29.5364 19.4649C30.404 20.0769 31.2883 20.7006 32.1797 21.3231V9.86932L24.0234 15.5818Z" fill="#35455C"/>
<path d="M28.4555 20.997C27.0142 19.9802 25.5384 18.9398 24.0234 17.899V29.2927L32.1605 23.5936C30.9082 22.7271 29.6659 21.8509 28.4555 20.997Z" fill="#35455C"/>
</g>
<defs>
<clipPath id="clip0_48_3220">
<rect width="32" height="32" fill="white" transform="translate(0.179688)"/>
</clipPath>
</defs>
</svg>
