<svg width="16" height="16" viewBox="0 0 16 16" fill="none" xmlns="http://www.w3.org/2000/svg">
<g clip-path="url(#clip0_3_2322)">
<path d="M7.77234 0.00406465C4.59349 0.115603 1.95266 2.59569 1.64757 5.76142C1.58524 6.39456 1.62132 7.00802 1.73286 7.59524C1.73286 7.59524 1.7427 7.66413 1.77551 7.79535C1.87392 8.23495 2.02155 8.66142 2.20526 9.06164C2.84497 10.5773 4.32449 13.1131 7.6444 15.8721C7.84779 16.0426 8.14632 16.0426 8.353 15.8721C11.6729 13.1164 13.1524 10.5805 13.7954 9.05836C13.9824 8.65814 14.1268 8.23495 14.2252 7.79207C14.2547 7.66413 14.2678 7.59196 14.2678 7.59196C14.3433 7.1983 14.3826 6.79479 14.3826 6.38144C14.3826 2.7794 11.4006 -0.123877 7.77234 0.00406465ZM7.9987 9.55701C6.28625 9.55701 4.89859 8.16934 4.89859 6.45689C4.89859 4.74445 6.28625 3.35678 7.9987 3.35678C9.71114 3.35678 11.0988 4.74445 11.0988 6.45689C11.0988 8.16934 9.71114 9.55701 7.9987 9.55701Z" fill="#35455C"/>
</g>
<defs>
<clipPath id="clip0_3_2322">
<rect width="16" height="16" fill="white"/>
</clipPath>
</defs>
</svg>
