<svg width="32" height="32" viewBox="0 0 32 32" fill="none" xmlns="http://www.w3.org/2000/svg">
<path d="M28.0855 7.23387L27.4641 5.63168L21.5184 0.0265503L13.1446 3.83293L12.6631 7.20299H17.2379L17.4941 6.12224L19.3185 6.55468L18.7204 9.07806H12.3953L12.3503 9.39243L14.8646 12.7448H20.3958V15.4131C20.4801 15.4734 20.5638 15.535 20.6465 15.5984C22.2099 16.7984 23.3649 18.4985 23.8986 20.3855L22.0944 20.8958C21.2089 17.7649 18.3151 15.5781 15.0572 15.5781C11.7994 15.5781 8.9055 17.7648 8.01994 20.8958L6.21575 20.3855C6.61563 18.9716 7.36438 17.6626 8.37244 16.5903C6.81075 15.5848 4.97956 15.0364 3.06463 15.0364H0V31.9544L5.4845 30.3491C8.69644 31.433 12.0391 31.9734 15.3792 31.9734C19.2705 31.9734 23.1584 31.2397 26.8302 29.777L32 27.7176V27.0819C32 20.2439 30.8293 14.3081 28.0855 7.23387Z" fill="#35455C"/>
</svg>
