<svg width="33" height="32" viewBox="0 0 33 32" fill="none" xmlns="http://www.w3.org/2000/svg">
<g clip-path="url(#clip0_6_2387)">
<path d="M8.96597 10.0392C10.1788 10.0392 11.162 9.05597 11.162 7.84311C11.162 6.63025 10.1788 5.64703 8.96597 5.64703C7.75311 5.64703 6.7699 6.63025 6.7699 7.84311C6.7699 9.05597 7.75311 10.0392 8.96597 10.0392Z" fill="#35455C"/>
<path d="M19.0051 6.58824H25.5934V6.1984L19.395 0H19.0051V6.58824Z" fill="#35455C"/>
<path d="M19.0052 29.1764H18.064V26.0976C18.064 24.1625 19.6383 22.5882 21.5734 22.5882H21.9632L21.9641 22.5843C21.7611 20.4893 21.323 18.4212 20.6569 16.423C20.4797 15.8914 20.3899 15.3376 20.3899 14.7772V14.6164C20.3899 11.7469 22.724 9.41245 25.5934 9.41182V8.47064H17.1228V0H1.1228V32H19.0052V29.1764ZM8.96594 3.7647C11.2148 3.7647 13.0444 5.59428 13.0444 7.84313C13.0444 10.092 11.2148 11.9216 8.96594 11.9216C6.71709 11.9216 4.88751 10.092 4.88751 7.84313C4.88751 5.59428 6.71709 3.7647 8.96594 3.7647ZM4.88751 14.1176H18.064V16H4.88751V14.1176ZM4.88751 17.8823H18.064V19.7647H4.88751V17.8823ZM13.6718 27.2941H4.88751V25.4117H13.6718V27.2941ZM15.2405 23.5294H4.88751V21.647H15.2405V23.5294Z" fill="#35455C"/>
<path d="M22.2722 14.6163V14.7772C22.2722 15.135 22.3296 15.4884 22.4427 15.8278C23.1731 18.019 23.6467 20.2891 23.855 22.5882H27.3339C27.5423 20.2891 28.0159 18.019 28.7463 15.8278C28.8595 15.4883 28.9168 15.1349 28.9168 14.7772V14.6163C28.9168 12.7845 27.4264 11.2941 25.5945 11.2941C23.7626 11.2941 22.2722 12.7845 22.2722 14.6163Z" fill="#35455C"/>
<path d="M19.9463 26.0976V27.2941H31.2404V26.0976C31.2404 25.2005 30.5105 24.4706 29.6133 24.4706H21.5733C20.6762 24.4706 19.9463 25.2005 19.9463 26.0976Z" fill="#35455C"/>
<path d="M20.8876 29.1765H30.2993V32H20.8876V29.1765Z" fill="#35455C"/>
</g>
<defs>
<clipPath id="clip0_6_2387">
<rect width="32" height="32" fill="white" transform="translate(0.181641)"/>
</clipPath>
</defs>
</svg>
