<svg width="33" height="32" viewBox="0 0 33 32" fill="none" xmlns="http://www.w3.org/2000/svg">
<g clip-path="url(#clip0_6_2379)">
<path d="M31.1641 0.0989003C30.6981 -0.131787 30.1378 0.0549629 29.9052 0.517275L21.3477 17.6473L19.6716 16.8077C18.2837 16.1128 16.5918 16.6786 15.8969 18.0629L15.4773 18.9007L25.5371 23.9392L25.9567 23.101C26.6496 21.7171 26.0959 20.0273 24.7015 19.3272L23.025 18.4875L31.5825 1.35771C31.8141 0.894462 31.6264 0.3314 31.1641 0.0989003Z" fill="#35455C"/>
<path d="M10.9941 32C11.5119 32 11.9316 31.5803 11.9316 31.0625C11.9316 30.5447 11.5119 30.125 10.9941 30.125C10.4764 30.125 10.0566 30.5447 10.0566 31.0625C10.0566 31.5803 10.4764 32 10.9941 32Z" fill="#35455C"/>
<path d="M1.61914 26.375C2.13691 26.375 2.55664 25.9553 2.55664 25.4375C2.55664 24.9197 2.13691 24.5 1.61914 24.5C1.10137 24.5 0.681641 24.9197 0.681641 25.4375C0.681641 25.9553 1.10137 26.375 1.61914 26.375Z" fill="#35455C"/>
<path d="M5.36914 28.25C5.88691 28.25 6.30664 27.8303 6.30664 27.3125C6.30664 26.7947 5.88691 26.375 5.36914 26.375C4.85137 26.375 4.43164 26.7947 4.43164 27.3125C4.43164 27.8303 4.85137 28.25 5.36914 28.25Z" fill="#35455C"/>
<path d="M7.24414 30.125H3.49414C2.97689 30.125 2.55664 29.7048 2.55664 29.1875C2.55664 28.6693 2.13733 28.25 1.61914 28.25C1.10095 28.25 0.681641 28.6693 0.681641 29.1875C0.681641 30.7384 1.94327 32 3.49414 32H7.24414C7.76233 32 8.18164 31.5807 8.18164 31.0625C8.18164 30.5443 7.76233 30.125 7.24414 30.125Z" fill="#35455C"/>
<path d="M6.97138 24.2547C6.5612 24.3059 6.23345 24.62 6.16388 25.0265C6.09432 25.4339 6.29845 25.8385 6.66745 26.0235L11.1471 28.2665C11.9556 28.6712 12.8491 28.8323 13.7207 28.7398C13.6181 29.1555 13.8131 29.6013 14.2114 29.8018L18.4028 31.9012C18.755 32.0749 19.1633 32.0137 19.4456 31.7638C19.5923 31.6332 22.7853 28.7603 24.6518 25.594L14.5515 20.5352C12.2885 23.542 7.02882 24.2471 6.97138 24.2547Z" fill="#35455C"/>
</g>
<defs>
<clipPath id="clip0_6_2379">
<rect width="32" height="32" fill="white" transform="translate(0.181641)"/>
</clipPath>
</defs>
</svg>
