<svg width="16" height="17" viewBox="0 0 16 17" fill="none" xmlns="http://www.w3.org/2000/svg">
<g clip-path="url(#clip0_568_172)">
<path d="M8.00237 4.58789C5.84174 4.58789 4.09253 6.339 4.09253 8.49773C4.09253 10.6584 5.84364 12.4076 8.00237 12.4076C10.163 12.4076 11.9122 10.6565 11.9122 8.49773C11.9122 6.3371 10.1611 4.58789 8.00237 4.58789ZM8.00237 11.0355C6.59983 11.0355 5.46459 9.89964 5.46459 8.49773C5.46459 7.09583 6.60047 5.95995 8.00237 5.95995C9.40428 5.95995 10.5401 7.09583 10.5401 8.49773C10.5408 9.89964 9.40491 11.0355 8.00237 11.0355Z" fill="#D21FFF"/>
<path d="M11.1414 0.928724C9.73949 0.863327 6.26711 0.866502 4.86393 0.928724C3.63092 0.986502 2.5433 1.28428 1.66647 2.1611C0.201077 3.6265 0.388379 5.60111 0.388379 8.49698C0.388379 11.4608 0.223299 13.3897 1.66647 14.8329C3.13758 16.3033 5.14076 16.1109 8.00235 16.1109C10.9382 16.1109 11.9516 16.1129 12.9896 15.7109C14.4011 15.163 15.4665 13.9014 15.5706 11.6354C15.6366 10.2329 15.6328 6.76111 15.5706 5.35793C15.4449 2.68301 14.0093 1.06079 11.1414 0.928724ZM13.3604 13.8633C12.3998 14.824 11.0671 14.7382 7.98393 14.7382C4.80933 14.7382 3.53632 14.7852 2.60743 13.8538C1.53758 12.789 1.73124 11.0792 1.73124 8.48682C1.73124 4.97888 1.37124 2.45253 4.89187 2.27222C5.70076 2.24364 5.93886 2.23412 7.97505 2.23412L8.00362 2.25317C11.3871 2.25317 14.0417 1.89888 14.2011 5.41888C14.2373 6.22206 14.2455 6.46333 14.2455 8.49634C14.2449 11.6341 14.3046 12.9148 13.3604 13.8633Z" fill="#D21FFF"/>
<path d="M12.0672 5.34683C12.5718 5.34683 12.9809 4.93777 12.9809 4.43318C12.9809 3.92859 12.5718 3.51953 12.0672 3.51953C11.5626 3.51953 11.1536 3.92859 11.1536 4.43318C11.1536 4.93777 11.5626 5.34683 12.0672 5.34683Z" fill="#D21FFF"/>
</g>
<defs>
<clipPath id="clip0_568_172">
<rect width="15.2381" height="15.2381" fill="white" transform="translate(0.380859 0.880859)"/>
</clipPath>
</defs>
</svg>
