<svg width="16" height="16" viewBox="0 0 16 16" fill="none" xmlns="http://www.w3.org/2000/svg">
<path d="M6.40008 9.99997C6.8419 9.99997 7.20007 9.6418 7.20007 9.19997C7.20007 8.75815 6.8419 8.39998 6.40008 8.39998C5.95826 8.39998 5.6001 8.75815 5.6001 9.19997C5.6001 9.6418 5.95826 9.99997 6.40008 9.99997Z" fill="#FFC23C"/>
<path d="M14.4 11.6V13.2H12.8V9.19997C12.8 5.67997 9.91998 2.79997 6.39997 2.79997C2.87996 2.79997 0 5.68001 0 9.19997C0 12.7199 2.88 15.6 6.40001 15.6H12.4C12.64 15.6 12.8 15.44 12.8 15.2V14.8H16V13.84V13.2V11.6H14.4ZM6.40001 11.6C5.04 11.6 4.00001 10.56 4.00001 9.19997C4.00001 7.83996 5.04 6.79998 6.40001 6.79998C7.76002 6.79998 8.80001 7.83996 8.80001 9.19997C8.80001 10.56 7.75998 11.6 6.40001 11.6Z" fill="#FFC23C"/>
<path d="M10.3999 0.400013V2.16C11.5999 2.88 12.7199 4.00001 13.4399 5.20001H15.1999C14.2399 3.12 12.4799 1.36001 10.3999 0.400013Z" fill="#FFC23C"/>
</svg>
