<svg width="25" height="25" viewBox="0 0 25 25" fill="none" xmlns="http://www.w3.org/2000/svg">
<path d="M20.9853 16.0147C19.6783 14.7077 18.1226 13.7402 16.4253 13.1545C18.2432 11.9024 19.4375 9.80694 19.4375 7.4375C19.4375 3.61217 16.3253 0.5 12.5 0.5C8.67467 0.5 5.5625 3.61217 5.5625 7.4375C5.5625 9.80694 6.75683 11.9024 8.57478 13.1545C6.87744 13.7402 5.32175 14.7077 4.01473 16.0147C1.74823 18.2812 0.5 21.2947 0.5 24.5H2.375C2.375 18.917 6.91705 14.375 12.5 14.375C18.083 14.375 22.625 18.917 22.625 24.5H24.5C24.5 21.2947 23.2518 18.2812 20.9853 16.0147ZM12.5 12.5C9.70855 12.5 7.4375 10.229 7.4375 7.4375C7.4375 4.646 9.70855 2.375 12.5 2.375C15.2915 2.375 17.5625 4.646 17.5625 7.4375C17.5625 10.229 15.2915 12.5 12.5 12.5Z" fill="#35455C"/>
</svg>
