<svg width="16" height="16" viewBox="0 0 16 16" fill="none" xmlns="http://www.w3.org/2000/svg">
<path d="M14.6329 11.2815L12.675 9.32362C11.9758 8.62438 10.7871 8.9041 10.5074 9.81308C10.2976 10.4424 9.5984 10.792 8.96909 10.6522C7.57063 10.3025 5.6827 8.48454 5.33308 7.01615C5.12331 6.38681 5.54285 5.68758 6.17216 5.47783C7.08116 5.19814 7.36086 4.00944 6.66162 3.31021L4.70377 1.35236C4.14439 0.862894 3.30531 0.862894 2.81584 1.35236L1.4873 2.6809C0.158758 4.07937 1.62715 7.7853 4.91354 11.0717C8.19994 14.3581 11.9059 15.8964 13.3043 14.4979L14.6329 13.1694C15.1224 12.61 15.1224 11.7709 14.6329 11.2815Z" fill="#35455C"/>
</svg>
