<svg width="18" height="18" viewBox="0 0 18 18" fill="none" xmlns="http://www.w3.org/2000/svg">
<g clip-path="url(#clip0_6_2439)">
<path d="M9.23511 0.143188C4.54815 0.143188 0.735107 3.9563 0.735107 8.64319C0.735107 13.3301 4.54815 17.1432 9.23511 17.1432C13.9221 17.1432 17.7351 13.3301 17.7351 8.64319C17.7351 3.9563 13.9221 0.143188 9.23511 0.143188ZM9.23511 15.498C5.45536 15.498 2.38026 12.423 2.38026 8.64319C2.38026 4.86341 5.45536 1.78834 9.23511 1.78834C13.0149 1.78834 16.09 4.86344 16.09 8.64319C16.09 12.4229 13.0149 15.498 9.23511 15.498Z" fill="#55CD6C"/>
<path d="M12.2179 5.59381L8.13826 9.67345L5.97794 7.51318L4.8147 8.67642L8.13826 12L13.3812 6.75705L12.2179 5.59381Z" fill="#55CD6C"/>
</g>
<defs>
<clipPath id="clip0_6_2439">
<rect width="17" height="17" fill="white" transform="translate(0.735107 0.143188)"/>
</clipPath>
</defs>
</svg>
