<svg width="24" height="24" viewBox="0 0 24 24" fill="none" xmlns="http://www.w3.org/2000/svg">
<path fill-rule="evenodd" clip-rule="evenodd" d="M8.00062 4.02183L7.8564 4.04371L7.36488 4.1416L6.87331 4.23945L6.39929 4.40056L5.92523 4.56161L5.46534 4.78438L5.00546 5.00709L4.48389 5.35749L3.96233 5.70793L3.33461 6.34134L2.7069 6.97475L2.35821 7.50319L2.00957 8.03162L1.77756 8.52192L1.54555 9.01222L1.3959 9.46541L1.24629 9.9186L1.14148 10.3871L1.03668 10.8556L1.01836 13.6935L1 16.5313L1.05399 16.8442L1.10798 17.157L1.25071 17.5304L1.3934 17.9038L1.58805 18.2077L1.78271 18.5116L2.05524 18.8012L2.32778 19.0909L2.65512 19.3238L2.98247 19.5567L3.34558 19.7093L3.70873 19.8618L4.02781 19.93L4.34693 19.9983L9.38042 19.9992L14.4139 20L14.6687 19.9471L14.9234 19.8942L15.308 19.7085L15.6926 19.5227L15.978 19.2539L16.2634 18.985L18.9827 18.971L21.702 18.957L21.9664 18.8303L22.2308 18.7035L22.4574 18.5003L22.684 18.297L22.842 17.9731L23 17.6492V15.1004V12.5515L22.842 12.2276L22.684 11.9037L22.4633 11.7078L22.2427 11.5118L21.9723 11.3778L21.702 11.2437L19.2768 11.2195L16.8516 11.1952L16.7898 10.7634L16.7281 10.3317L16.6294 9.96872L16.5307 9.60576L16.3596 9.13918L16.1885 8.67264L15.9701 8.2603L15.7516 7.84795L15.5574 7.55689L15.3632 7.26582L15.0874 6.92624L14.8117 6.58666L14.4589 6.2434L14.1061 5.90009L13.8658 5.70395L13.6254 5.50787L13.2408 5.25426L12.8562 5.00069L12.3754 4.76745L11.8947 4.53425L11.4316 4.38144L10.9684 4.22863L10.5182 4.12991L10.0678 4.03119L9.10635 4.01557L8.14485 4L8.00062 4.02183ZM10.2554 5.66321L10.5872 5.73932L11.0107 5.88248L11.4343 6.02568L11.7808 6.20178L12.1273 6.37787L12.3235 6.50507L12.5197 6.63231L12.8081 6.85022L13.0966 7.06819L13.379 7.33679L13.6614 7.6054L13.9578 7.99349L14.2542 8.38158L14.3798 8.57955L14.5054 8.77753L14.6799 9.12715L14.8544 9.47681L14.9963 9.9042L15.1382 10.3316L15.219 10.6664L15.2998 11.0012L15.3185 14.2013L15.3372 17.4014L15.2557 17.6166L15.1742 17.8319L15.0008 18.0261L14.8273 18.2203L14.5869 18.3335L14.3465 18.4467L9.41556 18.4472L4.48457 18.4476L4.22347 18.3694L3.96233 18.2913L3.72455 18.1698L3.48672 18.0483L3.21332 17.7724L2.93992 17.4965L2.81949 17.2565L2.69906 17.0166L2.62162 16.7531L2.54412 16.4896V13.9336V11.3777L2.61782 10.9469L2.69147 10.5161L2.81444 10.1037L2.93737 9.69138L3.12736 9.2801L3.31731 8.86887L3.46884 8.6252L3.62037 8.38158L3.91757 7.99349L4.21477 7.6054L4.49721 7.33679L4.7796 7.06819L5.06805 6.84668L5.3565 6.62523L5.746 6.39737L6.13551 6.16956L6.47905 6.02849L6.82264 5.88742L7.1472 5.78992L7.4718 5.69236L7.8564 5.61925L8.241 5.5461L9.08231 5.56662L9.92362 5.58714L10.2554 5.66321ZM8.33715 7.63082L8.00062 7.6737L7.57814 7.79755L7.15561 7.92135L6.80894 8.09696L6.46223 8.27262L6.11488 8.51426L5.76749 8.75589L5.42645 9.11817L5.08541 9.48045L4.86936 9.81746L4.65336 10.1545L4.51437 10.4565L4.37544 10.7586L4.24376 11.1952L4.11208 11.6318L4.10929 12.4808L4.10655 13.3297L4.2178 13.7421L4.32904 14.1544L4.54192 14.6088L4.7548 15.0632L4.99132 15.385L5.2279 15.7068L5.58063 16.0516L5.9334 16.3964L6.30406 16.6406L6.67467 16.8846L7.03797 17.0372L7.40122 17.1898L7.77304 17.2856L8.14485 17.3814L8.67641 17.4121L9.20798 17.4427L9.708 17.3584L10.208 17.274L10.5466 17.1514L10.8851 17.0288L11.1255 16.9073L11.3659 16.7857L11.7119 16.5451L12.0578 16.3046L12.4333 15.9087L12.8087 15.5127L12.9932 15.231L13.1776 14.9492L13.362 14.5518L13.5465 14.1544L13.6581 13.7421L13.7696 13.3297L13.766 12.4808L13.7623 11.6318L13.6315 11.1952L13.5007 10.7586L13.3618 10.4565L13.2228 10.1545L13.0068 9.81746L12.7908 9.48045L12.4497 9.11817L12.1087 8.75589L11.7524 8.50737L11.3962 8.25884L10.9964 8.06558L10.5967 7.87231L10.1368 7.75481L9.6769 7.63732L9.17529 7.61263L8.67367 7.58793L8.33715 7.63082ZM9.75536 9.25973L10.0678 9.33147L10.4104 9.50209L10.7529 9.6727L11.0673 9.93442L11.3818 10.1961L11.5999 10.5046L11.8181 10.8131L11.9635 11.1233L12.1089 11.4336L12.188 11.7925L12.2672 12.1515L12.245 12.6678L12.2227 13.1842L12.0786 13.6023L11.9345 14.0203L11.7081 14.364L11.4816 14.7078L11.1593 15.0059L10.837 15.3039L10.4044 15.5146L9.97169 15.7252L9.60113 15.8009L9.23057 15.8766H8.93808H8.6456L8.27503 15.8009L7.90447 15.7252L7.4718 15.5146L7.03912 15.3039L6.71683 15.0059L6.39454 14.7078L6.16805 14.364L5.94162 14.0203L5.79754 13.6023L5.65346 13.1842L5.6312 12.6678L5.60899 12.1515L5.68812 11.7925L5.76725 11.4336L5.91268 11.1233L6.05806 10.8131L6.27622 10.5046L6.49439 10.1961L6.8076 9.93544L7.12076 9.67479L7.47363 9.50117L7.82645 9.32754L8.1299 9.25764L8.4333 9.18778L8.60156 9.16591L8.76982 9.14403L9.10635 9.166L9.44287 9.18793L9.75536 9.25973ZM8.69742 11.5049L8.5769 11.5444L8.43301 11.6198L8.28907 11.6954L8.18321 11.8098L8.0773 11.9242L8.00293 12.1039L7.92851 12.2836V12.5297V12.7757L8.02024 12.9557L8.11201 13.1357L8.24859 13.2665L8.38522 13.3973L8.56397 13.4727L8.74271 13.548H8.93808H9.13346L9.3122 13.4727L9.49095 13.3973L9.62757 13.2665L9.76416 13.1357L9.85593 12.9557L9.94766 12.7757V12.5297V12.2836L9.87324 12.1039L9.79887 11.9242L9.69296 11.8097L9.5871 11.6951L9.40696 11.6019L9.22682 11.5088L9.02236 11.4871L8.8179 11.4654L8.69742 11.5049ZM21.4101 12.848L21.4856 12.9243V15.1004V17.2764L21.4101 17.3527L21.3345 17.4289H20.6409H19.9472V16.9267V16.4245L19.8391 16.2642L19.7309 16.1038L19.6023 16.0076L19.4737 15.9115L19.2417 15.892L19.0098 15.8725L18.8202 15.9837L18.6305 16.0949L18.5325 16.2643L18.4345 16.4337L18.4162 16.9313L18.3979 17.4289H17.6342H16.8704V15.1004V12.7718H19.1025H21.3345L21.4101 12.848Z" fill="#323C49"/>
</svg>
