<svg width="16" height="17" viewBox="0 0 16 17" fill="none" xmlns="http://www.w3.org/2000/svg">
<g clip-path="url(#clip0_74_2193)">
<path d="M15.6211 14.1851L11.9426 10.5063C12.5676 9.51126 12.9303 8.3352 12.9303 7.07306C12.9303 3.50232 10.0356 0.608032 6.46503 0.608032C2.89442 0.608032 0 3.50232 0 7.07306C0 10.6439 2.89429 13.538 6.46503 13.538C7.83856 13.538 9.1108 13.1085 10.1577 12.3789L13.7924 16.0139C14.045 16.2662 14.3761 16.3918 14.7068 16.3918C15.0378 16.3918 15.3685 16.2662 15.6215 16.0139C16.1262 15.5086 16.1262 14.6902 15.6211 14.1851ZM6.46503 11.4434C4.05162 11.4434 2.09498 9.48688 2.09498 7.07333C2.09498 4.65979 4.05162 2.70315 6.46503 2.70315C8.87858 2.70315 10.8351 4.65979 10.8351 7.07333C10.8351 9.48688 8.87858 11.4434 6.46503 11.4434Z" fill="#35455C"/>
</g>
<defs>
<clipPath id="clip0_74_2193">
<rect width="16" height="16" fill="white" transform="translate(0 0.5)"/>
</clipPath>
</defs>
</svg>
