<svg width="20" height="20" viewBox="0 0 20 20" fill="none" xmlns="http://www.w3.org/2000/svg">
<path d="M13.2125 11.3463L13.2072 11.39C11.9245 10.7507 11.7903 10.6655 11.6247 10.914C11.5097 11.0861 11.1749 11.4763 11.074 11.5918C10.9719 11.7056 10.8704 11.7143 10.6972 11.6356C10.5222 11.5481 9.96041 11.3643 9.29541 10.7693C8.77741 10.3056 8.42975 9.73684 8.32708 9.56184C8.15616 9.26667 8.51375 9.22467 8.83925 8.60867C8.89758 8.48617 8.86783 8.38992 8.82466 8.30301C8.78091 8.21551 8.43266 7.35801 8.28683 7.01617C8.14683 6.67551 8.00275 6.71867 7.89483 6.71867C7.55883 6.68951 7.31325 6.69417 7.09683 6.91934C6.15533 7.95417 6.39275 9.02167 7.19833 10.1568C8.7815 12.2288 9.625 12.6103 11.1673 13.14C11.5838 13.2724 11.9636 13.2538 12.264 13.2106C12.5988 13.1575 13.2947 12.79 13.44 12.3788C13.5887 11.9675 13.5887 11.6263 13.545 11.5475C13.5018 11.4688 13.3875 11.425 13.2125 11.3463Z" fill="#55CD6C"/>
<path d="M14.97 5.01217C10.4847 0.676252 3.06183 3.821 3.05892 9.93784C3.05892 11.1605 3.37917 12.3528 3.98933 13.4058L3 17.0003L6.69542 16.0366C11.3067 18.5274 16.9977 15.2199 17 9.94134C17 8.08867 16.2767 6.34509 14.9612 5.03492L14.97 5.01217ZM15.8345 9.92209C15.831 14.3747 10.9432 17.1554 7.0775 14.8828L6.8675 14.7579L4.68 15.3267L5.26625 13.2004L5.12683 12.9817C2.72117 9.15209 5.485 4.14709 10.042 4.14709C11.5902 4.14709 13.0433 4.75084 14.1376 5.84459C15.2313 6.929 15.8345 8.38209 15.8345 9.92209Z" fill="#55CD6C"/>
</svg>
