<?xml version="1.0" encoding="utf-8"?>
<!-- Generator: Adobe Illustrator 25.0.0, SVG Export Plug-In . SVG Version: 6.00 Build 0)  -->
<svg version="1.1" id="Слой_1" xmlns="http://www.w3.org/2000/svg" xmlns:xlink="http://www.w3.org/1999/xlink" x="0px" y="0px"
	 viewBox="0 0 12.8 12.8" style="enable-background:new 0 0 12.8 12.8;" xml:space="preserve">
<path d="M6.4,0C2.9,0,0,2.9,0,6.4c0,1.2,0.3,2.3,0.9,3.3l-0.9,3.1L3.2,12c0.9,0.5,2,0.8,3.2,0.8c3.5,0,6.4-2.9,6.4-6.4S9.9,0,6.4,0z
	 M4.2,3.4c0.1,0,0.2,0,0.3,0c0.1,0,0.2,0,0.4,0.3C5,4,5.3,4.8,5.4,4.9s0.1,0.2,0,0.3C5.3,5.3,5.3,5.3,5.2,5.4C5.1,5.5,5,5.6,5,5.7
	C4.9,5.8,4.8,5.9,4.9,6C5,6.2,5.3,6.7,5.8,7.1c0.6,0.5,1.1,0.7,1.3,0.8C7.2,8,7.3,8,7.4,7.9c0.1-0.1,0.4-0.5,0.5-0.6
	C8,7.1,8.1,7.1,8.3,7.2c0.1,0.1,0.9,0.4,1.1,0.5s0.3,0.1,0.3,0.2c0,0.1,0,0.4-0.1,0.8C9.4,9,8.8,9.3,8.5,9.4C8.2,9.4,7.9,9.5,6.6,9
	C5,8.3,4,6.7,3.9,6.6C3.8,6.5,3.2,5.7,3.2,4.9c0-0.8,0.4-1.2,0.6-1.3C3.9,3.5,4.1,3.4,4.2,3.4z"/>
</svg>
