<svg width="17" height="17" viewBox="0 0 17 17" fill="none" xmlns="http://www.w3.org/2000/svg">
<g clip-path="url(#clip0_2993_45)">
<path d="M11.9963 9.96462L11.9906 10.0122C10.5944 9.31637 10.4484 9.22367 10.268 9.49414C10.143 9.68145 9.77851 10.1062 9.66867 10.2319C9.55756 10.3557 9.44709 10.3653 9.25851 10.2795C9.06804 10.1843 8.45661 9.9843 7.7328 9.33668C7.16899 8.83192 6.79058 8.21287 6.67883 8.0224C6.4928 7.70113 6.88201 7.65541 7.23629 6.98494C7.29978 6.85161 7.2674 6.74684 7.22042 6.65224C7.1728 6.557 6.79375 5.62367 6.63502 5.25161C6.48264 4.88081 6.32582 4.9278 6.20836 4.9278C5.84264 4.89605 5.57534 4.90113 5.33978 5.14621C4.31502 6.27256 4.57344 7.43446 5.45026 8.67002C7.17344 10.9253 8.09153 11.3405 9.77026 11.917C10.2236 12.0611 10.6369 12.0408 10.9639 11.9938C11.3284 11.936 12.0858 11.536 12.2439 11.0884C12.4058 10.6408 12.4058 10.2694 12.3582 10.1837C12.3112 10.098 12.1868 10.0503 11.9963 9.96462Z" fill="#55CD6C"/>
<path d="M13.9094 3.07C9.02753 -1.64937 0.948161 1.77349 0.944986 8.43127C0.944986 9.76206 1.29356 11.0598 1.95768 12.2059L0.880859 16.1183L4.90308 15.0694C9.92213 17.7805 16.1164 14.1805 16.119 8.43508C16.119 6.41857 15.3317 4.52079 13.8999 3.09476L13.9094 3.07ZM14.8504 8.41412C14.8466 13.2605 9.52657 16.2871 5.31895 13.8135L5.09038 13.6776L2.70943 14.2967L3.34753 11.9824L3.19578 11.7443C0.577367 7.57603 3.58562 2.12841 8.54562 2.12841C10.2307 2.12841 11.8123 2.78555 13.0034 3.97603C14.1939 5.15635 14.8504 6.73793 14.8504 8.41412Z" fill="#55CD6C"/>
</g>
<defs>
<clipPath id="clip0_2993_45">
<rect width="15.2381" height="15.2381" fill="white" transform="translate(0.880859 0.880859)"/>
</clipPath>
</defs>
</svg>
