<svg width="16" height="17" viewBox="0 0 16 17" fill="none" xmlns="http://www.w3.org/2000/svg">
<g clip-path="url(#clip0_568_207)">
<path d="M15.2818 4.64575L15.3008 4.77019C15.1167 4.11686 14.6195 3.61273 13.9878 3.42924L13.9745 3.42606C12.7865 3.10352 8.0062 3.10352 8.0062 3.10352C8.0062 3.10352 3.23794 3.09718 2.03794 3.42606C1.39414 3.61273 0.896358 4.11686 0.715405 4.75686L0.712231 4.77019C0.268421 7.08829 0.265246 9.87368 0.731913 12.3556L0.712231 12.2299C0.896358 12.8832 1.3935 13.3873 2.02525 13.5708L2.03858 13.574C3.22525 13.8972 8.00683 13.8972 8.00683 13.8972C8.00683 13.8972 12.7745 13.8972 13.9751 13.574C14.6195 13.3873 15.1173 12.8832 15.2983 12.2432L15.3014 12.2299C15.5033 11.1518 15.6189 9.91114 15.6189 8.64384C15.6189 8.59749 15.6189 8.55051 15.6183 8.50352C15.6189 8.46035 15.6189 8.40892 15.6189 8.35749C15.6189 7.08956 15.5033 5.84892 15.2818 4.64575ZM6.48112 10.8184V6.18797L10.4595 8.5067L6.48112 10.8184Z" fill="#FF0000"/>
</g>
<defs>
<clipPath id="clip0_568_207">
<rect width="15.2381" height="15.2381" fill="white" transform="translate(0.380859 0.880859)"/>
</clipPath>
</defs>
</svg>
